<?xml version="1.0" encoding="UTF-8" standalone="no"?>
<!DOCTYPE svg PUBLIC "-//W3C//DTD SVG 1.1//EN"
 "http://www.w3.org/Graphics/SVG/1.1/DTD/svg11.dtd">
<!-- Generated by graphviz version 2.30.1 (20130221.2233)
 -->
<!-- Title: controllers_diagram Pages: 1 -->
<svg width="1115pt" height="1160pt"
 viewBox="0.00 0.00 1114.90 1160.23" xmlns="http://www.w3.org/2000/svg" xmlns:xlink="http://www.w3.org/1999/xlink">
<g id="graph0" class="graph" transform="scale(1 1) rotate(0) translate(4 1156.23)">
<title>controllers_diagram</title>
<polygon fill="white" stroke="white" points="-4,5 -4,-1156.23 1111.9,-1156.23 1111.9,5 -4,5"/>
<!-- _diagram_info -->
<g id="node1" class="node"><title>_diagram_info</title>
<text text-anchor="start" x="908" y="-144" font-family="Times,serif" font-size="13.00">Controllers diagram</text>
<text text-anchor="start" x="908" y="-128.4" font-family="Times,serif" font-size="13.00">Date: Nov 07 2013 &#45; 09:51</text>
<text text-anchor="start" x="908" y="-112.8" font-family="Times,serif" font-size="13.00">Migration version: 20131031154644</text>
<text text-anchor="start" x="908" y="-97.2" font-family="Times,serif" font-size="13.00">Generated by RailRoady 1.1.1</text>
<text text-anchor="start" x="908" y="-81.6" font-family="Times,serif" font-size="13.00">http://railroady.prestonlee.com</text>
</g>
<!-- AgentsController -->
<g id="node2" class="node"><title>AgentsController</title>
<path fill="none" stroke="black" d="M20.0085,-294.237C20.0085,-294.237 109.216,-294.237 109.216,-294.237 115.216,-294.237 121.216,-300.237 121.216,-306.237 121.216,-306.237 121.216,-565.437 121.216,-565.437 121.216,-571.437 115.216,-577.437 109.216,-577.437 109.216,-577.437 20.0085,-577.437 20.0085,-577.437 14.0085,-577.437 8.00853,-571.437 8.00853,-565.437 8.00853,-565.437 8.00853,-306.237 8.00853,-306.237 8.00853,-300.237 14.0085,-294.237 20.0085,-294.237"/>
<text text-anchor="middle" x="64.612" y="-559.437" font-family="Times,serif" font-size="14.00">AgentsController</text>
<polyline fill="none" stroke="black" points="8.00853,-552.637 121.216,-552.637 "/>
<text text-anchor="start" x="16.0085" y="-534.637" font-family="Times,serif" font-size="14.00">create</text>
<text text-anchor="start" x="16.0085" y="-517.837" font-family="Times,serif" font-size="14.00">destroy</text>
<text text-anchor="start" x="16.0085" y="-501.037" font-family="Times,serif" font-size="14.00">edit</text>
<text text-anchor="start" x="16.0085" y="-484.237" font-family="Times,serif" font-size="14.00">import</text>
<text text-anchor="start" x="16.0085" y="-467.437" font-family="Times,serif" font-size="14.00">index</text>
<text text-anchor="start" x="16.0085" y="-450.637" font-family="Times,serif" font-size="14.00">new</text>
<text text-anchor="start" x="16.0085" y="-433.837" font-family="Times,serif" font-size="14.00">partials</text>
<text text-anchor="start" x="16.0085" y="-417.037" font-family="Times,serif" font-size="14.00">show</text>
<text text-anchor="start" x="16.0085" y="-400.237" font-family="Times,serif" font-size="14.00">update</text>
<polyline fill="none" stroke="black" points="8.00853,-393.437 121.216,-393.437 "/>
<polyline fill="none" stroke="black" points="8.00853,-369.437 121.216,-369.437 "/>
<text text-anchor="start" x="16.0085" y="-351.437" font-family="Times,serif" font-size="14.00">_layout</text>
<text text-anchor="start" x="16.0085" y="-334.637" font-family="Times,serif" font-size="14.00">agent_params</text>
<text text-anchor="start" x="16.0085" y="-317.837" font-family="Times,serif" font-size="14.00">seed_params</text>
<text text-anchor="start" x="16.0085" y="-301.037" font-family="Times,serif" font-size="14.00">set_agent</text>
</g>
<!-- ApplicationController -->
<g id="node3" class="node"><title>ApplicationController</title>
<path fill="none" stroke="black" d="M432.003,-518.937C432.003,-518.937 547.645,-518.937 547.645,-518.937 553.645,-518.937 559.645,-524.937 559.645,-530.937 559.645,-530.937 559.645,-605.337 559.645,-605.337 559.645,-611.337 553.645,-617.337 547.645,-617.337 547.645,-617.337 432.003,-617.337 432.003,-617.337 426.003,-617.337 420.003,-611.337 420.003,-605.337 420.003,-605.337 420.003,-530.937 420.003,-530.937 420.003,-524.937 426.003,-518.937 432.003,-518.937"/>
<text text-anchor="middle" x="489.824" y="-599.337" font-family="Times,serif" font-size="14.00">ApplicationController</text>
<polyline fill="none" stroke="black" points="420.003,-592.537 559.645,-592.537 "/>
<text text-anchor="start" x="428.003" y="-574.537" font-family="Times,serif" font-size="14.00">generate_content</text>
<polyline fill="none" stroke="black" points="420.003,-567.737 559.645,-567.737 "/>
<polyline fill="none" stroke="black" points="420.003,-543.737 559.645,-543.737 "/>
<text text-anchor="start" x="428.003" y="-525.737" font-family="Times,serif" font-size="14.00">_layout</text>
</g>
<!-- ApplicationController&#45;&gt;AgentsController -->
<g id="edge1" class="edge"><title>ApplicationController&#45;&gt;AgentsController</title>
<path fill="none" stroke="black" d="M419.712,-520.145C396.921,-506.452 370.946,-492.758 345.575,-483.516 270.846,-456.296 179.184,-444.461 121.319,-439.422"/>
</g>
<!-- ArchitectureController -->
<g id="node4" class="node"><title>ArchitectureController</title>
<path fill="none" stroke="black" d="M231.197,-40.4614C231.197,-40.4614 350.701,-40.4614 350.701,-40.4614 356.701,-40.4614 362.701,-46.4614 362.701,-52.4614 362.701,-52.4614 362.701,-160.461 362.701,-160.461 362.701,-166.461 356.701,-172.461 350.701,-172.461 350.701,-172.461 231.197,-172.461 231.197,-172.461 225.197,-172.461 219.197,-166.461 219.197,-160.461 219.197,-160.461 219.197,-52.4614 219.197,-52.4614 219.197,-46.4614 225.197,-40.4614 231.197,-40.4614"/>
<text text-anchor="middle" x="290.949" y="-154.461" font-family="Times,serif" font-size="14.00">ArchitectureController</text>
<polyline fill="none" stroke="black" points="219.197,-147.661 362.701,-147.661 "/>
<text text-anchor="start" x="227.197" y="-129.661" font-family="Times,serif" font-size="14.00">components</text>
<text text-anchor="start" x="227.197" y="-112.861" font-family="Times,serif" font-size="14.00">flows</text>
<text text-anchor="start" x="227.197" y="-96.0614" font-family="Times,serif" font-size="14.00">models</text>
<polyline fill="none" stroke="black" points="219.197,-89.2614 362.701,-89.2614 "/>
<polyline fill="none" stroke="black" points="219.197,-65.2614 362.701,-65.2614 "/>
<text text-anchor="start" x="227.197" y="-47.2614" font-family="Times,serif" font-size="14.00">_layout</text>
</g>
<!-- ApplicationController&#45;&gt;ArchitectureController -->
<g id="edge2" class="edge"><title>ApplicationController&#45;&gt;ArchitectureController</title>
<path fill="none" stroke="black" d="M468.541,-518.729C432.568,-435.22 359.73,-266.131 319.41,-172.532"/>
</g>
<!-- CachesController -->
<g id="node5" class="node"><title>CachesController</title>
<path fill="none" stroke="black" d="M248.052,-902.966C248.052,-902.966 338.024,-902.966 338.024,-902.966 344.024,-902.966 350.024,-908.966 350.024,-914.966 350.024,-914.966 350.024,-1123.77 350.024,-1123.77 350.024,-1129.77 344.024,-1135.77 338.024,-1135.77 338.024,-1135.77 248.052,-1135.77 248.052,-1135.77 242.052,-1135.77 236.052,-1129.77 236.052,-1123.77 236.052,-1123.77 236.052,-914.966 236.052,-914.966 236.052,-908.966 242.052,-902.966 248.052,-902.966"/>
<text text-anchor="middle" x="293.038" y="-1117.77" font-family="Times,serif" font-size="14.00">CachesController</text>
<polyline fill="none" stroke="black" points="236.052,-1110.97 350.024,-1110.97 "/>
<text text-anchor="start" x="244.052" y="-1092.97" font-family="Times,serif" font-size="14.00">create</text>
<text text-anchor="start" x="244.052" y="-1076.17" font-family="Times,serif" font-size="14.00">destroy</text>
<text text-anchor="start" x="244.052" y="-1059.37" font-family="Times,serif" font-size="14.00">edit</text>
<text text-anchor="start" x="244.052" y="-1042.57" font-family="Times,serif" font-size="14.00">index</text>
<text text-anchor="start" x="244.052" y="-1025.77" font-family="Times,serif" font-size="14.00">new</text>
<text text-anchor="start" x="244.052" y="-1008.97" font-family="Times,serif" font-size="14.00">show</text>
<text text-anchor="start" x="244.052" y="-992.166" font-family="Times,serif" font-size="14.00">update</text>
<polyline fill="none" stroke="black" points="236.052,-985.366 350.024,-985.366 "/>
<polyline fill="none" stroke="black" points="236.052,-961.366 350.024,-961.366 "/>
<text text-anchor="start" x="244.052" y="-943.366" font-family="Times,serif" font-size="14.00">_layout</text>
<text text-anchor="start" x="244.052" y="-926.566" font-family="Times,serif" font-size="14.00">cach_params</text>
<text text-anchor="start" x="244.052" y="-909.766" font-family="Times,serif" font-size="14.00">set_cach</text>
</g>
<!-- ApplicationController&#45;&gt;CachesController -->
<g id="edge3" class="edge"><title>ApplicationController&#45;&gt;CachesController</title>
<path fill="none" stroke="black" d="M468.202,-617.717C438.498,-685.826 384.174,-810.392 343.869,-902.81"/>
</g>
<!-- ContactController -->
<g id="node6" class="node"><title>ContactController</title>
<path fill="none" stroke="black" d="M454.752,-725.559C454.752,-725.559 547.842,-725.559 547.842,-725.559 553.842,-725.559 559.842,-731.559 559.842,-737.559 559.842,-737.559 559.842,-811.959 559.842,-811.959 559.842,-817.959 553.842,-823.959 547.842,-823.959 547.842,-823.959 454.752,-823.959 454.752,-823.959 448.752,-823.959 442.752,-817.959 442.752,-811.959 442.752,-811.959 442.752,-737.559 442.752,-737.559 442.752,-731.559 448.752,-725.559 454.752,-725.559"/>
<text text-anchor="middle" x="501.297" y="-805.959" font-family="Times,serif" font-size="14.00">ContactController</text>
<polyline fill="none" stroke="black" points="442.752,-799.159 559.842,-799.159 "/>
<text text-anchor="start" x="450.752" y="-781.159" font-family="Times,serif" font-size="14.00">index</text>
<polyline fill="none" stroke="black" points="442.752,-774.359 559.842,-774.359 "/>
<polyline fill="none" stroke="black" points="442.752,-750.359 559.842,-750.359 "/>
<text text-anchor="start" x="450.752" y="-732.359" font-family="Times,serif" font-size="14.00">_layout</text>
</g>
<!-- ApplicationController&#45;&gt;ContactController -->
<g id="edge4" class="edge"><title>ApplicationController&#45;&gt;ContactController</title>
<path fill="none" stroke="black" d="M492.558,-617.365C494.374,-650.071 496.749,-692.848 498.565,-725.55"/>
</g>
<!-- DeliveryController -->
<g id="node7" class="node"><title>DeliveryController</title>
<path fill="none" stroke="black" d="M241.018,-698.393C241.018,-698.393 339.542,-698.393 339.542,-698.393 345.542,-698.393 351.542,-704.393 351.542,-710.393 351.542,-710.393 351.542,-818.393 351.542,-818.393 351.542,-824.393 345.542,-830.393 339.542,-830.393 339.542,-830.393 241.018,-830.393 241.018,-830.393 235.018,-830.393 229.018,-824.393 229.018,-818.393 229.018,-818.393 229.018,-710.393 229.018,-710.393 229.018,-704.393 235.018,-698.393 241.018,-698.393"/>
<text text-anchor="middle" x="290.28" y="-812.393" font-family="Times,serif" font-size="14.00">DeliveryController</text>
<polyline fill="none" stroke="black" points="229.018,-805.593 351.542,-805.593 "/>
<text text-anchor="start" x="237.018" y="-787.593" font-family="Times,serif" font-size="14.00">get</text>
<text text-anchor="start" x="237.018" y="-770.793" font-family="Times,serif" font-size="14.00">go</text>
<text text-anchor="start" x="237.018" y="-753.993" font-family="Times,serif" font-size="14.00">post</text>
<polyline fill="none" stroke="black" points="229.018,-747.193 351.542,-747.193 "/>
<polyline fill="none" stroke="black" points="229.018,-723.193 351.542,-723.193 "/>
<text text-anchor="start" x="237.018" y="-705.193" font-family="Times,serif" font-size="14.00">_layout</text>
</g>
<!-- ApplicationController&#45;&gt;DeliveryController -->
<g id="edge5" class="edge"><title>ApplicationController&#45;&gt;DeliveryController</title>
<path fill="none" stroke="black" d="M439.728,-617.407C413.06,-643.636 380.035,-676.117 351.817,-703.87"/>
</g>
<!-- HomeController -->
<g id="node8" class="node"><title>HomeController</title>
<path fill="none" stroke="black" d="M22.3263,-93.0854C22.3263,-93.0854 106.085,-93.0854 106.085,-93.0854 112.085,-93.0854 118.085,-99.0854 118.085,-105.085 118.085,-105.085 118.085,-179.485 118.085,-179.485 118.085,-185.485 112.085,-191.485 106.085,-191.485 106.085,-191.485 22.3263,-191.485 22.3263,-191.485 16.3263,-191.485 10.3263,-185.485 10.3263,-179.485 10.3263,-179.485 10.3263,-105.085 10.3263,-105.085 10.3263,-99.0854 16.3263,-93.0854 22.3263,-93.0854"/>
<text text-anchor="middle" x="64.2057" y="-173.485" font-family="Times,serif" font-size="14.00">HomeController</text>
<polyline fill="none" stroke="black" points="10.3263,-166.685 118.085,-166.685 "/>
<text text-anchor="start" x="18.3263" y="-148.685" font-family="Times,serif" font-size="14.00">index</text>
<polyline fill="none" stroke="black" points="10.3263,-141.885 118.085,-141.885 "/>
<polyline fill="none" stroke="black" points="10.3263,-117.885 118.085,-117.885 "/>
<text text-anchor="start" x="18.3263" y="-99.8854" font-family="Times,serif" font-size="14.00">_layout</text>
</g>
<!-- ApplicationController&#45;&gt;HomeController -->
<g id="edge6" class="edge"><title>ApplicationController&#45;&gt;HomeController</title>
<path fill="none" stroke="black" d="M419.916,-527.065C345.612,-483.245 237.686,-419.051 229.883,-411.319 163.936,-345.972 112.772,-249.438 85.6683,-191.517"/>
</g>
<!-- IntegrationsController -->
<g id="node9" class="node"><title>IntegrationsController</title>
<path fill="none" stroke="black" d="M669.181,-327.765C669.181,-327.765 785.595,-327.765 785.595,-327.765 791.595,-327.765 797.595,-333.765 797.595,-339.765 797.595,-339.765 797.595,-548.565 797.595,-548.565 797.595,-554.565 791.595,-560.565 785.595,-560.565 785.595,-560.565 669.181,-560.565 669.181,-560.565 663.181,-560.565 657.181,-554.565 657.181,-548.565 657.181,-548.565 657.181,-339.765 657.181,-339.765 657.181,-333.765 663.181,-327.765 669.181,-327.765"/>
<text text-anchor="middle" x="727.388" y="-542.565" font-family="Times,serif" font-size="14.00">IntegrationsController</text>
<polyline fill="none" stroke="black" points="657.181,-535.765 797.595,-535.765 "/>
<text text-anchor="start" x="665.181" y="-517.765" font-family="Times,serif" font-size="14.00">create</text>
<text text-anchor="start" x="665.181" y="-500.965" font-family="Times,serif" font-size="14.00">destroy</text>
<text text-anchor="start" x="665.181" y="-484.165" font-family="Times,serif" font-size="14.00">edit</text>
<text text-anchor="start" x="665.181" y="-467.365" font-family="Times,serif" font-size="14.00">index</text>
<text text-anchor="start" x="665.181" y="-450.565" font-family="Times,serif" font-size="14.00">new</text>
<text text-anchor="start" x="665.181" y="-433.765" font-family="Times,serif" font-size="14.00">show</text>
<text text-anchor="start" x="665.181" y="-416.965" font-family="Times,serif" font-size="14.00">update</text>
<polyline fill="none" stroke="black" points="657.181,-410.165 797.595,-410.165 "/>
<polyline fill="none" stroke="black" points="657.181,-386.165 797.595,-386.165 "/>
<text text-anchor="start" x="665.181" y="-368.165" font-family="Times,serif" font-size="14.00">_layout</text>
<text text-anchor="start" x="665.181" y="-351.365" font-family="Times,serif" font-size="14.00">integration_params</text>
<text text-anchor="start" x="665.181" y="-334.565" font-family="Times,serif" font-size="14.00">set_integration</text>
</g>
<!-- ApplicationController&#45;&gt;IntegrationsController -->
<g id="edge7" class="edge"><title>ApplicationController&#45;&gt;IntegrationsController</title>
<path fill="none" stroke="black" d="M559.816,-531.612C590.474,-515.613 626.381,-496.875 657.075,-480.858"/>
</g>
<!-- PostmanController -->
<g id="node10" class="node"><title>PostmanController</title>
<path fill="none" stroke="black" d="M232.603,-486.716C232.603,-486.716 330.375,-486.716 330.375,-486.716 336.375,-486.716 342.375,-492.716 342.375,-498.716 342.375,-498.716 342.375,-623.516 342.375,-623.516 342.375,-629.516 336.375,-635.516 330.375,-635.516 330.375,-635.516 232.603,-635.516 232.603,-635.516 226.603,-635.516 220.603,-629.516 220.603,-623.516 220.603,-623.516 220.603,-498.716 220.603,-498.716 220.603,-492.716 226.603,-486.716 232.603,-486.716"/>
<text text-anchor="middle" x="281.489" y="-617.516" font-family="Times,serif" font-size="14.00">PostmanController</text>
<polyline fill="none" stroke="black" points="220.603,-610.716 342.375,-610.716 "/>
<text text-anchor="start" x="228.603" y="-592.716" font-family="Times,serif" font-size="14.00">action</text>
<text text-anchor="start" x="228.603" y="-575.916" font-family="Times,serif" font-size="14.00">deliver</text>
<text text-anchor="start" x="228.603" y="-559.116" font-family="Times,serif" font-size="14.00">go</text>
<text text-anchor="start" x="228.603" y="-542.316" font-family="Times,serif" font-size="14.00">load</text>
<polyline fill="none" stroke="black" points="220.603,-535.516 342.375,-535.516 "/>
<polyline fill="none" stroke="black" points="220.603,-511.516 342.375,-511.516 "/>
<text text-anchor="start" x="228.603" y="-493.516" font-family="Times,serif" font-size="14.00">_layout</text>
</g>
<!-- ApplicationController&#45;&gt;PostmanController -->
<g id="edge8" class="edge"><title>ApplicationController&#45;&gt;PostmanController</title>
<path fill="none" stroke="black" d="M419.872,-565.779C394.811,-564.935 366.779,-563.99 342.532,-563.173"/>
</g>
<!-- PublicationsController -->
<g id="node11" class="node"><title>PublicationsController</title>
<path fill="none" stroke="black" d="M440.356,-0.5C440.356,-0.5 559.122,-0.5 559.122,-0.5 565.122,-0.5 571.122,-6.5 571.122,-12.5 571.122,-12.5 571.122,-204.5 571.122,-204.5 571.122,-210.5 565.122,-216.5 559.122,-216.5 559.122,-216.5 440.356,-216.5 440.356,-216.5 434.356,-216.5 428.356,-210.5 428.356,-204.5 428.356,-204.5 428.356,-12.5 428.356,-12.5 428.356,-6.5 434.356,-0.5 440.356,-0.5"/>
<text text-anchor="middle" x="499.739" y="-198.5" font-family="Times,serif" font-size="14.00">PublicationsController</text>
<polyline fill="none" stroke="black" points="428.356,-191.7 571.122,-191.7 "/>
<text text-anchor="start" x="436.356" y="-173.7" font-family="Times,serif" font-size="14.00">automating</text>
<text text-anchor="start" x="436.356" y="-156.9" font-family="Times,serif" font-size="14.00">content</text>
<text text-anchor="start" x="436.356" y="-140.1" font-family="Times,serif" font-size="14.00">framework</text>
<text text-anchor="start" x="436.356" y="-123.3" font-family="Times,serif" font-size="14.00">index</text>
<text text-anchor="start" x="436.356" y="-106.5" font-family="Times,serif" font-size="14.00">rule</text>
<text text-anchor="start" x="436.356" y="-89.7" font-family="Times,serif" font-size="14.00">semantic</text>
<text text-anchor="start" x="436.356" y="-72.9" font-family="Times,serif" font-size="14.00">template</text>
<text text-anchor="start" x="436.356" y="-56.1" font-family="Times,serif" font-size="14.00">wave</text>
<polyline fill="none" stroke="black" points="428.356,-49.3 571.122,-49.3 "/>
<polyline fill="none" stroke="black" points="428.356,-25.3 571.122,-25.3 "/>
<text text-anchor="start" x="436.356" y="-7.3" font-family="Times,serif" font-size="14.00">_layout</text>
</g>
<!-- ApplicationController&#45;&gt;PublicationsController -->
<g id="edge9" class="edge"><title>ApplicationController&#45;&gt;PublicationsController</title>
<path fill="none" stroke="black" d="M473.741,-518.742C465.544,-490.977 456.454,-455.492 452.337,-423.118 445.52,-369.505 445.845,-355.171 452.337,-301.518 455.705,-273.685 461.71,-244.076 468.339,-216.623"/>
</g>
<!-- ReferenceController -->
<g id="node12" class="node"><title>ReferenceController</title>
<path fill="none" stroke="black" d="M245.083,-309.719C245.083,-309.719 351.359,-309.719 351.359,-309.719 357.359,-309.719 363.359,-315.719 363.359,-321.719 363.359,-321.719 363.359,-396.119 363.359,-396.119 363.359,-402.119 357.359,-408.119 351.359,-408.119 351.359,-408.119 245.083,-408.119 245.083,-408.119 239.083,-408.119 233.083,-402.119 233.083,-396.119 233.083,-396.119 233.083,-321.719 233.083,-321.719 233.083,-315.719 239.083,-309.719 245.083,-309.719"/>
<text text-anchor="middle" x="298.221" y="-390.119" font-family="Times,serif" font-size="14.00">ReferenceController</text>
<polyline fill="none" stroke="black" points="233.083,-383.319 363.359,-383.319 "/>
<text text-anchor="start" x="241.083" y="-365.319" font-family="Times,serif" font-size="14.00">index</text>
<polyline fill="none" stroke="black" points="233.083,-358.519 363.359,-358.519 "/>
<polyline fill="none" stroke="black" points="233.083,-334.519 363.359,-334.519 "/>
<text text-anchor="start" x="241.083" y="-316.519" font-family="Times,serif" font-size="14.00">_layout</text>
</g>
<!-- ApplicationController&#45;&gt;ReferenceController -->
<g id="edge10" class="edge"><title>ApplicationController&#45;&gt;ReferenceController</title>
<path fill="none" stroke="black" d="M444.659,-518.82C414.124,-485.477 373.956,-441.616 343.414,-408.267"/>
</g>
<!-- ResearchController -->
<g id="node13" class="node"><title>ResearchController</title>
<path fill="none" stroke="black" d="M12,-623.766C12,-623.766 112.849,-623.766 112.849,-623.766 118.849,-623.766 124.849,-629.766 124.849,-635.766 124.849,-635.766 124.849,-743.766 124.849,-743.766 124.849,-749.766 118.849,-755.766 112.849,-755.766 112.849,-755.766 12,-755.766 12,-755.766 6,-755.766 0,-749.766 0,-743.766 0,-743.766 0,-635.766 0,-635.766 0,-629.766 6,-623.766 12,-623.766"/>
<text text-anchor="middle" x="62.4243" y="-737.766" font-family="Times,serif" font-size="14.00">ResearchController</text>
<polyline fill="none" stroke="black" points="0,-730.966 124.849,-730.966 "/>
<text text-anchor="start" x="8" y="-712.966" font-family="Times,serif" font-size="14.00">comparison</text>
<text text-anchor="start" x="8" y="-696.166" font-family="Times,serif" font-size="14.00">others</text>
<text text-anchor="start" x="8" y="-679.366" font-family="Times,serif" font-size="14.00">swot</text>
<polyline fill="none" stroke="black" points="0,-672.566 124.849,-672.566 "/>
<polyline fill="none" stroke="black" points="0,-648.566 124.849,-648.566 "/>
<text text-anchor="start" x="8" y="-630.566" font-family="Times,serif" font-size="14.00">_layout</text>
</g>
<!-- ApplicationController&#45;&gt;ResearchController -->
<g id="edge11" class="edge"><title>ApplicationController&#45;&gt;ResearchController</title>
<path fill="none" stroke="black" d="M419.924,-607.167C396.82,-618.746 370.611,-630.511 345.575,-638.716 271.765,-662.907 183.151,-676.545 124.95,-683.525"/>
</g>
<!-- SeedsController -->
<g id="node14" class="node"><title>SeedsController</title>
<path fill="none" stroke="black" d="M683.655,-573.843C683.655,-573.843 765.862,-573.843 765.862,-573.843 771.862,-573.843 777.862,-579.843 777.862,-585.843 777.862,-585.843 777.862,-794.643 777.862,-794.643 777.862,-800.643 771.862,-806.643 765.862,-806.643 765.862,-806.643 683.655,-806.643 683.655,-806.643 677.655,-806.643 671.655,-800.643 671.655,-794.643 671.655,-794.643 671.655,-585.843 671.655,-585.843 671.655,-579.843 677.655,-573.843 683.655,-573.843"/>
<text text-anchor="middle" x="724.758" y="-788.643" font-family="Times,serif" font-size="14.00">SeedsController</text>
<polyline fill="none" stroke="black" points="671.655,-781.843 777.862,-781.843 "/>
<text text-anchor="start" x="679.655" y="-763.843" font-family="Times,serif" font-size="14.00">create</text>
<text text-anchor="start" x="679.655" y="-747.043" font-family="Times,serif" font-size="14.00">destroy</text>
<text text-anchor="start" x="679.655" y="-730.243" font-family="Times,serif" font-size="14.00">edit</text>
<text text-anchor="start" x="679.655" y="-713.443" font-family="Times,serif" font-size="14.00">index</text>
<text text-anchor="start" x="679.655" y="-696.643" font-family="Times,serif" font-size="14.00">new</text>
<text text-anchor="start" x="679.655" y="-679.843" font-family="Times,serif" font-size="14.00">show</text>
<text text-anchor="start" x="679.655" y="-663.043" font-family="Times,serif" font-size="14.00">update</text>
<polyline fill="none" stroke="black" points="671.655,-656.243 777.862,-656.243 "/>
<polyline fill="none" stroke="black" points="671.655,-632.243 777.862,-632.243 "/>
<text text-anchor="start" x="679.655" y="-614.243" font-family="Times,serif" font-size="14.00">_layout</text>
<text text-anchor="start" x="679.655" y="-597.443" font-family="Times,serif" font-size="14.00">seed_params</text>
<text text-anchor="start" x="679.655" y="-580.643" font-family="Times,serif" font-size="14.00">set_seed</text>
</g>
<!-- ApplicationController&#45;&gt;SeedsController -->
<g id="edge12" class="edge"><title>ApplicationController&#45;&gt;SeedsController</title>
<path fill="none" stroke="black" d="M559.676,-604.442C595.519,-623.071 638.483,-645.402 671.594,-662.611"/>
</g>
<!-- SequencesController -->
<g id="node15" class="node"><title>SequencesController</title>
<path fill="none" stroke="black" d="M674.274,-903.601C674.274,-903.601 782.908,-903.601 782.908,-903.601 788.908,-903.601 794.908,-909.601 794.908,-915.601 794.908,-915.601 794.908,-1057.2 794.908,-1057.2 794.908,-1063.2 788.908,-1069.2 782.908,-1069.2 782.908,-1069.2 674.274,-1069.2 674.274,-1069.2 668.274,-1069.2 662.274,-1063.2 662.274,-1057.2 662.274,-1057.2 662.274,-915.601 662.274,-915.601 662.274,-909.601 668.274,-903.601 674.274,-903.601"/>
<text text-anchor="middle" x="728.591" y="-1051.2" font-family="Times,serif" font-size="14.00">SequencesController</text>
<polyline fill="none" stroke="black" points="662.274,-1044.4 794.908,-1044.4 "/>
<text text-anchor="start" x="670.274" y="-1026.4" font-family="Times,serif" font-size="14.00">content</text>
<text text-anchor="start" x="670.274" y="-1009.6" font-family="Times,serif" font-size="14.00">diff</text>
<text text-anchor="start" x="670.274" y="-992.801" font-family="Times,serif" font-size="14.00">full</text>
<text text-anchor="start" x="670.274" y="-976.001" font-family="Times,serif" font-size="14.00">rules</text>
<text text-anchor="start" x="670.274" y="-959.201" font-family="Times,serif" font-size="14.00">template</text>
<polyline fill="none" stroke="black" points="662.274,-952.401 794.908,-952.401 "/>
<polyline fill="none" stroke="black" points="662.274,-928.401 794.908,-928.401 "/>
<text text-anchor="start" x="670.274" y="-910.401" font-family="Times,serif" font-size="14.00">_layout</text>
</g>
<!-- ApplicationController&#45;&gt;SequencesController -->
<g id="edge13" class="edge"><title>ApplicationController&#45;&gt;SequencesController</title>
<path fill="none" stroke="black" d="M517.916,-617.347C558.103,-687.746 632.524,-818.115 681.292,-903.545"/>
</g>
<!-- TemplatesController -->
<g id="node16" class="node"><title>TemplatesController</title>
<path fill="none" stroke="black" d="M448.495,-902.133C448.495,-902.133 555.373,-902.133 555.373,-902.133 561.373,-902.133 567.373,-908.133 567.373,-914.133 567.373,-914.133 567.373,-1139.73 567.373,-1139.73 567.373,-1145.73 561.373,-1151.73 555.373,-1151.73 555.373,-1151.73 448.495,-1151.73 448.495,-1151.73 442.495,-1151.73 436.495,-1145.73 436.495,-1139.73 436.495,-1139.73 436.495,-914.133 436.495,-914.133 436.495,-908.133 442.495,-902.133 448.495,-902.133"/>
<text text-anchor="middle" x="501.934" y="-1133.73" font-family="Times,serif" font-size="14.00">TemplatesController</text>
<polyline fill="none" stroke="black" points="436.495,-1126.93 567.373,-1126.93 "/>
<text text-anchor="start" x="444.495" y="-1108.93" font-family="Times,serif" font-size="14.00">create</text>
<text text-anchor="start" x="444.495" y="-1092.13" font-family="Times,serif" font-size="14.00">destroy</text>
<text text-anchor="start" x="444.495" y="-1075.33" font-family="Times,serif" font-size="14.00">edit</text>
<text text-anchor="start" x="444.495" y="-1058.53" font-family="Times,serif" font-size="14.00">index</text>
<text text-anchor="start" x="444.495" y="-1041.73" font-family="Times,serif" font-size="14.00">new</text>
<text text-anchor="start" x="444.495" y="-1024.93" font-family="Times,serif" font-size="14.00">show</text>
<text text-anchor="start" x="444.495" y="-1008.13" font-family="Times,serif" font-size="14.00">start</text>
<text text-anchor="start" x="444.495" y="-991.333" font-family="Times,serif" font-size="14.00">update</text>
<polyline fill="none" stroke="black" points="436.495,-984.533 567.373,-984.533 "/>
<polyline fill="none" stroke="black" points="436.495,-960.533 567.373,-960.533 "/>
<text text-anchor="start" x="444.495" y="-942.533" font-family="Times,serif" font-size="14.00">_layout</text>
<text text-anchor="start" x="444.495" y="-925.733" font-family="Times,serif" font-size="14.00">set_template</text>
<text text-anchor="start" x="444.495" y="-908.933" font-family="Times,serif" font-size="14.00">template_params</text>
</g>
<!-- ApplicationController&#45;&gt;TemplatesController -->
<g id="edge14" class="edge"><title>ApplicationController&#45;&gt;TemplatesController</title>
<path fill="none" stroke="black" d="M469.321,-617.509C458.071,-647.3 445.274,-686.342 439.552,-722.359 432.244,-768.36 432.53,-781.114 439.552,-827.159 443.304,-851.764 449.515,-877.505 456.6,-902.012"/>
</g>
<!-- TesterController -->
<g id="node17" class="node"><title>TesterController</title>
<path fill="none" stroke="black" d="M467.537,-304.718C467.537,-304.718 551.084,-304.718 551.084,-304.718 557.084,-304.718 563.084,-310.718 563.084,-316.718 563.084,-316.718 563.084,-407.918 563.084,-407.918 563.084,-413.918 557.084,-419.918 551.084,-419.918 551.084,-419.918 467.537,-419.918 467.537,-419.918 461.537,-419.918 455.537,-413.918 455.537,-407.918 455.537,-407.918 455.537,-316.718 455.537,-316.718 455.537,-310.718 461.537,-304.718 467.537,-304.718"/>
<text text-anchor="middle" x="509.311" y="-401.918" font-family="Times,serif" font-size="14.00">TesterController</text>
<polyline fill="none" stroke="black" points="455.537,-395.118 563.084,-395.118 "/>
<text text-anchor="start" x="463.537" y="-377.118" font-family="Times,serif" font-size="14.00">agent</text>
<text text-anchor="start" x="463.537" y="-360.318" font-family="Times,serif" font-size="14.00">regex</text>
<polyline fill="none" stroke="black" points="455.537,-353.518 563.084,-353.518 "/>
<polyline fill="none" stroke="black" points="455.537,-329.518 563.084,-329.518 "/>
<text text-anchor="start" x="463.537" y="-311.518" font-family="Times,serif" font-size="14.00">_layout</text>
</g>
<!-- ApplicationController&#45;&gt;TesterController -->
<g id="edge15" class="edge"><title>ApplicationController&#45;&gt;TesterController</title>
<path fill="none" stroke="black" d="M494.492,-518.838C497.307,-489.106 500.906,-451.092 503.852,-419.973"/>
</g>
<!-- UsecasesController -->
<g id="node18" class="node"><title>UsecasesController</title>
<path fill="none" stroke="black" d="M677.335,-52.6661C677.335,-52.6661 778.19,-52.6661 778.19,-52.6661 784.19,-52.6661 790.19,-58.6661 790.19,-64.6661 790.19,-64.6661 790.19,-223.066 790.19,-223.066 790.19,-229.066 784.19,-235.066 778.19,-235.066 778.19,-235.066 677.335,-235.066 677.335,-235.066 671.335,-235.066 665.335,-229.066 665.335,-223.066 665.335,-223.066 665.335,-64.6661 665.335,-64.6661 665.335,-58.6661 671.335,-52.6661 677.335,-52.6661"/>
<text text-anchor="middle" x="727.763" y="-217.066" font-family="Times,serif" font-size="14.00">UsecasesController</text>
<polyline fill="none" stroke="black" points="665.335,-210.266 790.19,-210.266 "/>
<text text-anchor="start" x="673.335" y="-192.266" font-family="Times,serif" font-size="14.00">crm</text>
<text text-anchor="start" x="673.335" y="-175.466" font-family="Times,serif" font-size="14.00">index</text>
<text text-anchor="start" x="673.335" y="-158.666" font-family="Times,serif" font-size="14.00">management</text>
<text text-anchor="start" x="673.335" y="-141.866" font-family="Times,serif" font-size="14.00">medical</text>
<text text-anchor="start" x="673.335" y="-125.066" font-family="Times,serif" font-size="14.00">newborn</text>
<text text-anchor="start" x="673.335" y="-108.266" font-family="Times,serif" font-size="14.00">variome</text>
<polyline fill="none" stroke="black" points="665.335,-101.466 790.19,-101.466 "/>
<polyline fill="none" stroke="black" points="665.335,-77.4661 790.19,-77.4661 "/>
<text text-anchor="start" x="673.335" y="-59.4661" font-family="Times,serif" font-size="14.00">_layout</text>
</g>
<!-- ApplicationController&#45;&gt;UsecasesController -->
<g id="edge16" class="edge"><title>ApplicationController&#45;&gt;UsecasesController</title>
<path fill="none" stroke="black" d="M517.584,-518.637C556.445,-449.344 627.754,-322.192 676.435,-235.39"/>
</g>
<!-- VariantsController -->
<g id="node19" class="node"><title>VariantsController</title>
<path fill="none" stroke="black" d="M17.2476,-871.644C17.2476,-871.644 112.669,-871.644 112.669,-871.644 118.669,-871.644 124.669,-877.644 124.669,-883.644 124.669,-883.644 124.669,-1092.44 124.669,-1092.44 124.669,-1098.44 118.669,-1104.44 112.669,-1104.44 112.669,-1104.44 17.2476,-1104.44 17.2476,-1104.44 11.2476,-1104.44 5.2476,-1098.44 5.2476,-1092.44 5.2476,-1092.44 5.2476,-883.644 5.2476,-883.644 5.2476,-877.644 11.2476,-871.644 17.2476,-871.644"/>
<text text-anchor="middle" x="64.9581" y="-1086.44" font-family="Times,serif" font-size="14.00">VariantsController</text>
<polyline fill="none" stroke="black" points="5.2476,-1079.64 124.669,-1079.64 "/>
<text text-anchor="start" x="13.2476" y="-1061.64" font-family="Times,serif" font-size="14.00">create</text>
<text text-anchor="start" x="13.2476" y="-1044.84" font-family="Times,serif" font-size="14.00">destroy</text>
<text text-anchor="start" x="13.2476" y="-1028.04" font-family="Times,serif" font-size="14.00">edit</text>
<text text-anchor="start" x="13.2476" y="-1011.24" font-family="Times,serif" font-size="14.00">index</text>
<text text-anchor="start" x="13.2476" y="-994.444" font-family="Times,serif" font-size="14.00">new</text>
<text text-anchor="start" x="13.2476" y="-977.644" font-family="Times,serif" font-size="14.00">show</text>
<text text-anchor="start" x="13.2476" y="-960.844" font-family="Times,serif" font-size="14.00">update</text>
<polyline fill="none" stroke="black" points="5.2476,-954.044 124.669,-954.044 "/>
<polyline fill="none" stroke="black" points="5.2476,-930.044 124.669,-930.044 "/>
<text text-anchor="start" x="13.2476" y="-912.044" font-family="Times,serif" font-size="14.00">_layout</text>
<text text-anchor="start" x="13.2476" y="-895.244" font-family="Times,serif" font-size="14.00">set_variant</text>
<text text-anchor="start" x="13.2476" y="-878.444" font-family="Times,serif" font-size="14.00">variant_params</text>
</g>
<!-- ApplicationController&#45;&gt;VariantsController -->
<g id="edge17" class="edge"><title>ApplicationController&#45;&gt;VariantsController</title>
<path fill="none" stroke="black" d="M474.918,-617.405C455.328,-675.225 416.038,-771.124 354.742,-833.593 352.487,-835.892 208.955,-911.94 124.769,-956.45"/>
</g>
</g>
</svg>
