<?xml version="1.0" encoding="UTF-8" standalone="no"?>
<!DOCTYPE svg PUBLIC "-//W3C//DTD SVG 1.1//EN"
 "http://www.w3.org/Graphics/SVG/1.1/DTD/svg11.dtd">
<!-- Generated by graphviz version 2.30.1 (20130221.2233)
 -->
<!-- Title: controllers_diagram Pages: 1 -->
<svg width="948pt" height="644pt"
 viewBox="0.00 0.00 947.80 644.00" xmlns="http://www.w3.org/2000/svg" xmlns:xlink="http://www.w3.org/1999/xlink">
<g id="graph0" class="graph" transform="scale(1 1) rotate(0) translate(4 640)">
<title>controllers_diagram</title>
<polygon fill="white" stroke="white" points="-4,5 -4,-640 944.796,-640 944.796,5 -4,5"/>
<!-- _diagram_info -->
<g id="node1" class="node"><title>_diagram_info</title>
<text text-anchor="start" x="448" y="-619" font-family="Times,serif" font-size="13.00">Controllers diagram</text>
<text text-anchor="start" x="448" y="-603.4" font-family="Times,serif" font-size="13.00">Date: Nov 07 2013 &#45; 09:51</text>
<text text-anchor="start" x="448" y="-587.8" font-family="Times,serif" font-size="13.00">Migration version: 20131031154644</text>
<text text-anchor="start" x="448" y="-572.2" font-family="Times,serif" font-size="13.00">Generated by RailRoady 1.1.1</text>
<text text-anchor="start" x="448" y="-556.6" font-family="Times,serif" font-size="13.00">http://railroady.prestonlee.com</text>
</g>
<!-- AgentsController -->
<g id="node2" class="node"><title>AgentsController</title>
<ellipse fill="none" stroke="black" cx="91.4093" cy="-174.194" rx="78.1764" ry="18"/>
<text text-anchor="middle" x="91.4093" y="-168.594" font-family="Times,serif" font-size="14.00">AgentsController</text>
</g>
<!-- ApplicationController -->
<g id="node3" class="node"><title>ApplicationController</title>
<ellipse fill="none" stroke="black" cx="465.108" cy="-309.603" rx="96.1448" ry="18"/>
<text text-anchor="middle" x="465.108" y="-304.003" font-family="Times,serif" font-size="14.00">ApplicationController</text>
</g>
<!-- ApplicationController&#45;&gt;AgentsController -->
<g id="edge1" class="edge"><title>ApplicationController&#45;&gt;AgentsController</title>
<path fill="none" stroke="black" d="M420.773,-293.538C348.078,-267.197 204.526,-215.181 133.393,-189.407"/>
</g>
<!-- ArchitectureController -->
<g id="node4" class="node"><title>ArchitectureController</title>
<ellipse fill="none" stroke="black" cx="356.744" cy="-18.5163" rx="98.9728" ry="18"/>
<text text-anchor="middle" x="356.744" y="-12.9163" font-family="Times,serif" font-size="14.00">ArchitectureController</text>
</g>
<!-- ApplicationController&#45;&gt;ArchitectureController -->
<g id="edge2" class="edge"><title>ApplicationController&#45;&gt;ArchitectureController</title>
<path fill="none" stroke="black" d="M450.426,-291.428C429.445,-264.363 391.439,-211.05 373.452,-158.964 358.944,-116.954 356.599,-64.1396 356.47,-36.7998"/>
</g>
<!-- CachesController -->
<g id="node5" class="node"><title>CachesController</title>
<ellipse fill="none" stroke="black" cx="369.163" cy="-467.144" rx="78.7327" ry="18"/>
<text text-anchor="middle" x="369.163" y="-461.544" font-family="Times,serif" font-size="14.00">CachesController</text>
</g>
<!-- ApplicationController&#45;&gt;CachesController -->
<g id="edge3" class="edge"><title>ApplicationController&#45;&gt;CachesController</title>
<path fill="none" stroke="black" d="M454.102,-327.675C435.595,-358.064 398.462,-419.036 380.041,-449.283"/>
</g>
<!-- ContactController -->
<g id="node6" class="node"><title>ContactController</title>
<ellipse fill="none" stroke="black" cx="645.151" cy="-322.582" rx="80.5335" ry="18"/>
<text text-anchor="middle" x="645.151" y="-316.982" font-family="Times,serif" font-size="14.00">ContactController</text>
</g>
<!-- ApplicationController&#45;&gt;ContactController -->
<g id="edge4" class="edge"><title>ApplicationController&#45;&gt;ContactController</title>
<path fill="none" stroke="black" d="M555.13,-316.092C559.525,-316.409 563.921,-316.726 568.275,-317.04"/>
</g>
<!-- DeliveryController -->
<g id="node7" class="node"><title>DeliveryController</title>
<ellipse fill="none" stroke="black" cx="283.512" cy="-326.338" rx="84.5302" ry="18"/>
<text text-anchor="middle" x="283.512" y="-320.738" font-family="Times,serif" font-size="14.00">DeliveryController</text>
</g>
<!-- ApplicationController&#45;&gt;DeliveryController -->
<g id="edge5" class="edge"><title>ApplicationController&#45;&gt;DeliveryController</title>
<path fill="none" stroke="black" d="M378.565,-317.578C372.81,-318.109 367.032,-318.641 361.323,-319.167"/>
</g>
<!-- HomeController -->
<g id="node8" class="node"><title>HomeController</title>
<ellipse fill="none" stroke="black" cx="122.332" cy="-20.1691" rx="74.1605" ry="18"/>
<text text-anchor="middle" x="122.332" y="-14.5691" font-family="Times,serif" font-size="14.00">HomeController</text>
</g>
<!-- ApplicationController&#45;&gt;HomeController -->
<g id="edge6" class="edge"><title>ApplicationController&#45;&gt;HomeController</title>
<path fill="none" stroke="black" d="M456.241,-291.35C441.893,-263.214 411.34,-208.714 373.488,-172.489 307.541,-109.375 211.025,-60.0515 158.93,-36.0905"/>
</g>
<!-- IntegrationsController -->
<g id="node9" class="node"><title>IntegrationsController</title>
<ellipse fill="none" stroke="black" cx="842.941" cy="-168.155" rx="96.7103" ry="18"/>
<text text-anchor="middle" x="842.941" y="-162.555" font-family="Times,serif" font-size="14.00">IntegrationsController</text>
</g>
<!-- ApplicationController&#45;&gt;IntegrationsController -->
<g id="edge7" class="edge"><title>ApplicationController&#45;&gt;IntegrationsController</title>
<path fill="none" stroke="black" d="M508.45,-293.377C581.236,-266.128 727.174,-211.494 799.814,-184.3"/>
</g>
<!-- PostmanController -->
<g id="node10" class="node"><title>PostmanController</title>
<ellipse fill="none" stroke="black" cx="287.894" cy="-172.36" rx="83.9928" ry="18"/>
<text text-anchor="middle" x="287.894" y="-166.76" font-family="Times,serif" font-size="14.00">PostmanController</text>
</g>
<!-- ApplicationController&#45;&gt;PostmanController -->
<g id="edge8" class="edge"><title>ApplicationController&#45;&gt;PostmanController</title>
<path fill="none" stroke="black" d="M442.303,-291.942C408.182,-265.517 344.238,-215.995 310.332,-189.737"/>
</g>
<!-- PublicationsController -->
<g id="node11" class="node"><title>PublicationsController</title>
<ellipse fill="none" stroke="black" cx="571.209" cy="-18.1894" rx="98.4543" ry="18"/>
<text text-anchor="middle" x="571.209" y="-12.5894" font-family="Times,serif" font-size="14.00">PublicationsController</text>
</g>
<!-- ApplicationController&#45;&gt;PublicationsController -->
<g id="edge9" class="edge"><title>ApplicationController&#45;&gt;PublicationsController</title>
<path fill="none" stroke="black" d="M479.82,-291.49C500.826,-264.513 538.812,-211.346 556.371,-159.268 570.613,-117.028 572.133,-63.9936 571.802,-36.5444"/>
</g>
<!-- ReferenceController -->
<g id="node12" class="node"><title>ReferenceController</title>
<ellipse fill="none" stroke="black" cx="464.912" cy="-159.116" rx="89.7247" ry="18"/>
<text text-anchor="middle" x="464.912" y="-153.516" font-family="Times,serif" font-size="14.00">ReferenceController</text>
</g>
<!-- ApplicationController&#45;&gt;ReferenceController -->
<g id="edge10" class="edge"><title>ApplicationController&#45;&gt;ReferenceController</title>
<path fill="none" stroke="black" d="M465.084,-291.45C465.047,-262.526 464.973,-206.297 464.935,-177.333"/>
</g>
<!-- ResearchController -->
<g id="node13" class="node"><title>ResearchController</title>
<ellipse fill="none" stroke="black" cx="86.1183" cy="-325.662" rx="86.2368" ry="18"/>
<text text-anchor="middle" x="86.1183" y="-320.062" font-family="Times,serif" font-size="14.00">ResearchController</text>
</g>
<!-- ApplicationController&#45;&gt;ResearchController -->
<g id="edge11" class="edge"><title>ApplicationController&#45;&gt;ResearchController</title>
<path fill="none" stroke="black" d="M370.123,-306.163C342.339,-305.681 311.918,-305.663 283.943,-306.739 256.727,-307.785 250.039,-309.837 222.925,-312.41 203.92,-314.213 183.434,-316.184 164.247,-318.041"/>
</g>
<!-- SeedsController -->
<g id="node14" class="node"><title>SeedsController</title>
<ellipse fill="none" stroke="black" cx="840.927" cy="-317.452" rx="73.0201" ry="18"/>
<text text-anchor="middle" x="840.927" y="-311.852" font-family="Times,serif" font-size="14.00">SeedsController</text>
</g>
<!-- ApplicationController&#45;&gt;SeedsController -->
<g id="edge12" class="edge"><title>ApplicationController&#45;&gt;SeedsController</title>
<path fill="none" stroke="black" d="M557.325,-304.254C585.611,-303.142 616.832,-302.448 645.503,-302.982 688.021,-303.774 735.611,-307.242 773.182,-310.584"/>
</g>
<!-- SequencesController -->
<g id="node15" class="node"><title>SequencesController</title>
<ellipse fill="none" stroke="black" cx="808.485" cy="-468.929" rx="91.4781" ry="18"/>
<text text-anchor="middle" x="808.485" y="-463.329" font-family="Times,serif" font-size="14.00">SequencesController</text>
</g>
<!-- ApplicationController&#45;&gt;SequencesController -->
<g id="edge13" class="edge"><title>ApplicationController&#45;&gt;SequencesController</title>
<path fill="none" stroke="black" d="M501.207,-326.352C567.241,-356.992 706.747,-421.723 772.613,-452.284"/>
</g>
<!-- TemplatesController -->
<g id="node16" class="node"><title>TemplatesController</title>
<ellipse fill="none" stroke="black" cx="571.631" cy="-466.771" rx="90.055" ry="18"/>
<text text-anchor="middle" x="571.631" y="-461.171" font-family="Times,serif" font-size="14.00">TemplatesController</text>
</g>
<!-- ApplicationController&#45;&gt;TemplatesController -->
<g id="edge14" class="edge"><title>ApplicationController&#45;&gt;TemplatesController</title>
<path fill="none" stroke="black" d="M477.328,-327.632C497.766,-357.788 538.664,-418.131 559.226,-448.468"/>
</g>
<!-- TesterController -->
<g id="node17" class="node"><title>TesterController</title>
<ellipse fill="none" stroke="black" cx="643.789" cy="-169.979" rx="74.3682" ry="18"/>
<text text-anchor="middle" x="643.789" y="-164.379" font-family="Times,serif" font-size="14.00">TesterController</text>
</g>
<!-- ApplicationController&#45;&gt;TesterController -->
<g id="edge15" class="edge"><title>ApplicationController&#45;&gt;TesterController</title>
<path fill="none" stroke="black" d="M487.738,-291.919C522.202,-264.989 587.438,-214.013 621.623,-187.3"/>
</g>
<!-- UsecasesController -->
<g id="node18" class="node"><title>UsecasesController</title>
<ellipse fill="none" stroke="black" cx="806.798" cy="-18" rx="86.2462" ry="18"/>
<text text-anchor="middle" x="806.798" y="-12.4" font-family="Times,serif" font-size="14.00">UsecasesController</text>
</g>
<!-- ApplicationController&#45;&gt;UsecasesController -->
<g id="edge16" class="edge"><title>ApplicationController&#45;&gt;UsecasesController</title>
<path fill="none" stroke="black" d="M475.337,-291.652C492.068,-263.37 527.508,-207.772 568.006,-169.949 632.289,-109.914 723.423,-59.5451 772.43,-34.6766"/>
</g>
<!-- VariantsController -->
<g id="node19" class="node"><title>VariantsController</title>
<ellipse fill="none" stroke="black" cx="129.186" cy="-472.625" rx="82.2489" ry="18"/>
<text text-anchor="middle" x="129.186" y="-467.025" font-family="Times,serif" font-size="14.00">VariantsController</text>
</g>
<!-- ApplicationController&#45;&gt;VariantsController -->
<g id="edge17" class="edge"><title>ApplicationController&#45;&gt;VariantsController</title>
<path fill="none" stroke="black" d="M430.424,-326.435C365.718,-357.837 227.361,-424.981 163.182,-456.127"/>
</g>
</g>
</svg>
