<?xml version="1.0" encoding="UTF-8" standalone="no"?>
<!DOCTYPE svg PUBLIC "-//W3C//DTD SVG 1.1//EN"
 "http://www.w3.org/Graphics/SVG/1.1/DTD/svg11.dtd">
<!-- Generated by graphviz version 2.30.1 (20130221.2233)
 -->
<!-- Title: models_diagram Pages: 1 -->
<svg width="687pt" height="382pt"
 viewBox="0.00 0.00 687.00 382.00" xmlns="http://www.w3.org/2000/svg" xmlns:xlink="http://www.w3.org/1999/xlink">
<g id="graph0" class="graph" transform="scale(1 1) rotate(0) translate(4 378)">
<title>models_diagram</title>
<polygon fill="white" stroke="white" points="-4,5 -4,-378 684,-378 684,5 -4,5"/>
<!-- _diagram_info -->
<g id="node1" class="node"><title>_diagram_info</title>
<text text-anchor="start" x="7.55029" y="-357" font-family="Times,serif" font-size="13.00">Models diagram</text>
<text text-anchor="start" x="7.55029" y="-341.4" font-family="Times,serif" font-size="13.00">Date: Nov 07 2013 &#45; 09:51</text>
<text text-anchor="start" x="7.55029" y="-325.8" font-family="Times,serif" font-size="13.00">Migration version: 20131031154644</text>
<text text-anchor="start" x="7.55029" y="-310.2" font-family="Times,serif" font-size="13.00">Generated by RailRoady 1.1.1</text>
<text text-anchor="start" x="7.55029" y="-294.6" font-family="Times,serif" font-size="13.00">http://railroady.prestonlee.com</text>
</g>
<!-- Agent -->
<g id="node2" class="node"><title>Agent</title>
<ellipse fill="none" stroke="black" cx="185" cy="-162" rx="34.4542" ry="18"/>
<text text-anchor="middle" x="185" y="-156.4" font-family="Times,serif" font-size="14.00">Agent</text>
</g>
<!-- SeedMapping -->
<g id="node8" class="node"><title>SeedMapping</title>
<ellipse fill="none" stroke="black" cx="122" cy="-18" rx="64.5163" ry="18"/>
<text text-anchor="middle" x="122" y="-12.4" font-family="Times,serif" font-size="14.00">SeedMapping</text>
</g>
<!-- Agent&#45;&gt;SeedMapping -->
<g id="edge1" class="edge"><title>Agent&#45;&gt;SeedMapping</title>
<path fill="none" stroke="#2ae73d" d="M180.433,-136.077C176.503,-117.756 169.886,-92.5734 160,-72 155.292,-62.2032 148.772,-52.3008 142.46,-43.7498"/>
<ellipse fill="none" stroke="#2ae73d" cx="181.248" cy="-140.052" rx="4.00001" ry="4.00001"/>
<polygon fill="#2ae73d" stroke="#2ae73d" points="142.376,-43.64 139.864,-32.9656 139.334,-39.6716 136.292,-35.7032 136.292,-35.7032 136.292,-35.7032 139.334,-39.6716 132.721,-38.4407 142.376,-43.64 142.376,-43.64"/>
</g>
<!-- Seed -->
<g id="node7" class="node"><title>Seed</title>
<ellipse fill="none" stroke="black" cx="122" cy="-90" rx="29.216" ry="18"/>
<text text-anchor="middle" x="122" y="-84.4" font-family="Times,serif" font-size="14.00">Seed</text>
</g>
<!-- Agent&#45;&gt;Seed -->
<g id="edge2" class="edge"><title>Agent&#45;&gt;Seed</title>
<path fill="none" stroke="#8f5735" d="M164.155,-137.839C157.23,-130.144 149.526,-121.585 142.619,-113.91"/>
<polygon fill="#8f5735" stroke="#8f5735" points="164.329,-138.032 167.673,-148.475 167.673,-141.748 171.018,-145.465 171.018,-145.465 171.018,-145.465 167.673,-141.748 174.363,-142.454 164.329,-138.032 164.329,-138.032"/>
<polygon fill="#8f5735" stroke="#8f5735" points="142.2,-113.444 138.855,-103.001 138.855,-109.728 135.51,-106.011 135.51,-106.011 135.51,-106.011 138.855,-109.728 132.165,-109.022 142.2,-113.444 142.2,-113.444"/>
</g>
<!-- AgentMapping -->
<g id="node3" class="node"><title>AgentMapping</title>
<ellipse fill="none" stroke="black" cx="278" cy="-90" rx="69.2594" ry="18"/>
<text text-anchor="middle" x="278" y="-84.4" font-family="Times,serif" font-size="14.00">AgentMapping</text>
</g>
<!-- Agent&#45;&gt;AgentMapping -->
<g id="edge3" class="edge"><title>Agent&#45;&gt;AgentMapping</title>
<path fill="none" stroke="#9f9036" d="M210.559,-141.762C222.212,-132.991 236.083,-122.55 248.207,-113.425"/>
<ellipse fill="none" stroke="#9f9036" cx="207.016" cy="-144.429" rx="4.00002" ry="4.00002"/>
<polygon fill="#9f9036" stroke="#9f9036" points="248.283,-113.368 258.979,-110.949 252.278,-110.361 256.273,-107.354 256.273,-107.354 256.273,-107.354 252.278,-110.361 253.566,-103.759 248.283,-113.368 248.283,-113.368"/>
</g>
<!-- Agent&#45;&gt;Agent -->
<g id="edge4" class="edge"><title>Agent&#45;&gt;Agent</title>
<path fill="none" stroke="#00febd" d="M219.383,-175.454C229.32,-174.957 237,-170.472 237,-162 237,-153.528 229.32,-149.043 219.383,-148.546"/>
<polygon fill="#00febd" stroke="#00febd" points="219.313,-175.448 209.673,-170.221 214.326,-175.078 209.34,-174.708 209.34,-174.708 209.34,-174.708 214.326,-175.078 209.007,-179.196 219.313,-175.448 219.313,-175.448"/>
<polygon fill="#00febd" stroke="#00febd" points="219.313,-148.552 209.007,-144.804 214.326,-148.922 209.34,-149.292 209.34,-149.292 209.34,-149.292 214.326,-148.922 209.673,-153.779 219.313,-148.552 219.313,-148.552"/>
</g>
<!-- Cache -->
<g id="node4" class="node"><title>Cache</title>
<ellipse fill="none" stroke="black" cx="171" cy="-234" rx="35.2475" ry="18"/>
<text text-anchor="middle" x="171" y="-228.4" font-family="Times,serif" font-size="14.00">Cache</text>
</g>
<!-- Cache&#45;&gt;Agent -->
<g id="edge7" class="edge"><title>Cache&#45;&gt;Agent</title>
<path fill="none" stroke="#c6b6bd" d="M176.003,-207.987C177.294,-201.532 178.683,-194.583 179.975,-188.123"/>
<ellipse fill="none" stroke="#c6b6bd" cx="175.174" cy="-212.133" rx="4.00001" ry="4.00001"/>
<ellipse fill="#c6b6bd" stroke="#c6b6bd" cx="180.76" cy="-184.198" rx="4.00001" ry="4.00001"/>
</g>
<!-- Integration -->
<g id="node5" class="node"><title>Integration</title>
<ellipse fill="none" stroke="black" cx="353" cy="-234" rx="53.1058" ry="18"/>
<text text-anchor="middle" x="353" y="-228.4" font-family="Times,serif" font-size="14.00">Integration</text>
</g>
<!-- IntegrationMapping -->
<g id="node6" class="node"><title>IntegrationMapping</title>
<ellipse fill="none" stroke="black" cx="454" cy="-90" rx="87.9107" ry="18"/>
<text text-anchor="middle" x="454" y="-84.4" font-family="Times,serif" font-size="14.00">IntegrationMapping</text>
</g>
<!-- Integration&#45;&gt;IntegrationMapping -->
<g id="edge9" class="edge"><title>Integration&#45;&gt;IntegrationMapping</title>
<path fill="none" stroke="#0a1b5f" d="M351.501,-207.53C351.61,-188.521 354.476,-162.712 367,-144 376.369,-130.003 390.807,-119.085 405.246,-110.892"/>
<ellipse fill="none" stroke="#0a1b5f" cx="351.561" cy="-211.735" rx="4" ry="4"/>
<polygon fill="#0a1b5f" stroke="#0a1b5f" points="405.36,-110.832 416.303,-110.115 409.776,-108.486 414.192,-106.141 414.192,-106.141 414.192,-106.141 409.776,-108.486 412.081,-102.167 405.36,-110.832 405.36,-110.832"/>
</g>
<!-- Template -->
<g id="node9" class="node"><title>Template</title>
<ellipse fill="none" stroke="black" cx="423" cy="-162" rx="46.2407" ry="18"/>
<text text-anchor="middle" x="423" y="-156.4" font-family="Times,serif" font-size="14.00">Template</text>
</g>
<!-- Integration&#45;&gt;Template -->
<g id="edge10" class="edge"><title>Integration&#45;&gt;Template</title>
<path fill="none" stroke="#fd0876" d="M376.524,-209.476C384,-202 392.261,-193.739 399.72,-186.28"/>
<polygon fill="#fd0876" stroke="#fd0876" points="376.306,-209.694 366.053,-213.583 372.771,-213.229 369.235,-216.765 369.235,-216.765 369.235,-216.765 372.771,-213.229 372.417,-219.947 376.306,-209.694 376.306,-209.694"/>
<polygon fill="#fd0876" stroke="#fd0876" points="399.782,-186.218 410.035,-182.329 403.317,-182.683 406.853,-179.147 406.853,-179.147 406.853,-179.147 403.317,-182.683 403.671,-175.965 399.782,-186.218 399.782,-186.218"/>
</g>
<!-- Integration&#45;&gt;AgentMapping -->
<g id="edge11" class="edge"><title>Integration&#45;&gt;AgentMapping</title>
<path fill="none" stroke="#ca5abc" d="M340.306,-208.966C326.872,-183.531 305.736,-143.514 291.872,-117.264"/>
<ellipse fill="none" stroke="#ca5abc" cx="342.234" cy="-212.616" rx="4.00002" ry="4.00002"/>
<polygon fill="#ca5abc" stroke="#ca5abc" points="291.791,-117.11 291.099,-106.166 289.455,-112.689 287.12,-108.268 287.12,-108.268 287.12,-108.268 289.455,-112.689 283.141,-110.369 291.791,-117.11 291.791,-117.11"/>
</g>
<!-- Integration&#45;&gt;Agent -->
<g id="edge12" class="edge"><title>Integration&#45;&gt;Agent</title>
<path fill="none" stroke="#f3a176" d="M311.224,-215.594C283.231,-203.93 246.782,-188.743 220.253,-177.689"/>
<polygon fill="#f3a176" stroke="#f3a176" points="311.377,-215.657 318.877,-223.657 315.993,-217.58 320.608,-219.503 320.608,-219.503 320.608,-219.503 315.993,-217.58 322.339,-215.349 311.377,-215.657 311.377,-215.657"/>
<polygon fill="#f3a176" stroke="#f3a176" points="220.193,-177.664 212.693,-169.664 215.578,-175.741 210.962,-173.818 210.962,-173.818 210.962,-173.818 215.578,-175.741 209.231,-177.971 220.193,-177.664 220.193,-177.664"/>
</g>
<!-- Seed&#45;&gt;SeedMapping -->
<g id="edge15" class="edge"><title>Seed&#45;&gt;SeedMapping</title>
<path fill="none" stroke="#285415" d="M122,-63.6398C122,-58.0629 122,-52.1319 122,-46.4761"/>
<ellipse fill="none" stroke="#285415" cx="122" cy="-67.6966" rx="4" ry="4"/>
<polygon fill="#285415" stroke="#285415" points="122,-46.1043 126.5,-36.1043 122,-41.1043 122,-36.1043 122,-36.1043 122,-36.1043 122,-41.1043 117.5,-36.1044 122,-46.1043 122,-46.1043"/>
</g>
<!-- Template&#45;&gt;IntegrationMapping -->
<g id="edge18" class="edge"><title>Template&#45;&gt;IntegrationMapping</title>
<path fill="none" stroke="#d4ba93" d="M433.829,-136.548C436.539,-130.428 439.459,-123.835 442.213,-117.616"/>
<ellipse fill="none" stroke="#d4ba93" cx="432.124" cy="-140.398" rx="4.00002" ry="4.00002"/>
<polygon fill="#d4ba93" stroke="#d4ba93" points="442.3,-117.419 450.464,-110.097 444.325,-112.847 446.35,-108.275 446.35,-108.275 446.35,-108.275 444.325,-112.847 442.235,-106.453 442.3,-117.419 442.3,-117.419"/>
</g>
<!-- User -->
<g id="node10" class="node"><title>User</title>
<ellipse fill="none" stroke="black" cx="555" cy="-234" rx="28.9087" ry="18"/>
<text text-anchor="middle" x="555" y="-228.4" font-family="Times,serif" font-size="14.00">User</text>
</g>
<!-- Variant -->
<g id="node11" class="node"><title>Variant</title>
<ellipse fill="none" stroke="black" cx="641" cy="-234" rx="38.3853" ry="18"/>
<text text-anchor="middle" x="641" y="-228.4" font-family="Times,serif" font-size="14.00">Variant</text>
</g>
<!-- ActiveRecord::Base -->
<g id="node12" class="node"><title>ActiveRecord::Base</title>
<ellipse fill="none" stroke="black" cx="313" cy="-331" rx="88.2033" ry="18"/>
<text text-anchor="middle" x="313" y="-325.4" font-family="Times,serif" font-size="14.00">ActiveRecord::Base</text>
</g>
<!-- ActiveRecord::Base&#45;&gt;Agent -->
<g id="edge5" class="edge"><title>ActiveRecord::Base&#45;&gt;Agent</title>
<path fill="none" stroke="black" d="M300.022,-313.068C275.235,-280.728 221.472,-210.584 197.258,-178.993"/>
</g>
<!-- ActiveRecord::Base&#45;&gt;AgentMapping -->
<g id="edge6" class="edge"><title>ActiveRecord::Base&#45;&gt;AgentMapping</title>
<path fill="none" stroke="black" d="M307.13,-312.876C302.014,-297.221 294.831,-273.326 291,-252 281.679,-200.111 279.037,-137.606 278.291,-108.061"/>
</g>
<!-- ActiveRecord::Base&#45;&gt;Cache -->
<g id="edge8" class="edge"><title>ActiveRecord::Base&#45;&gt;Cache</title>
<path fill="none" stroke="black" d="M288.589,-313.669C261.153,-295.313 217.098,-265.84 191.415,-248.658"/>
</g>
<!-- ActiveRecord::Base&#45;&gt;Integration -->
<g id="edge13" class="edge"><title>ActiveRecord::Base&#45;&gt;Integration</title>
<path fill="none" stroke="black" d="M320.151,-313.016C327.387,-295.831 338.514,-269.404 345.776,-252.157"/>
</g>
<!-- ActiveRecord::Base&#45;&gt;IntegrationMapping -->
<g id="edge14" class="edge"><title>ActiveRecord::Base&#45;&gt;IntegrationMapping</title>
<path fill="none" stroke="black" d="M345.639,-314.199C371.756,-300.403 408.16,-278.469 434,-252 460.197,-225.165 467.843,-216.1 478,-180 482.334,-164.598 481.376,-159.64 478,-144 475.272,-131.362 469.272,-118.112 463.954,-108.022"/>
</g>
<!-- ActiveRecord::Base&#45;&gt;Seed -->
<g id="edge16" class="edge"><title>ActiveRecord::Base&#45;&gt;Seed</title>
<path fill="none" stroke="black" d="M277.22,-314.497C258.683,-306.508 235.659,-296.652 215,-288 176.023,-271.676 151.096,-286.714 127,-252 96.384,-207.892 108.879,-139.383 117.041,-107.886"/>
</g>
<!-- ActiveRecord::Base&#45;&gt;SeedMapping -->
<g id="edge17" class="edge"><title>ActiveRecord::Base&#45;&gt;SeedMapping</title>
<path fill="none" stroke="black" d="M278.344,-314.371C259.713,-306.166 236.259,-296.151 215,-288 168.544,-270.187 141.47,-289.699 109,-252 56.25,-190.755 57.7891,-148.798 83,-72 87.4896,-58.3237 97.0074,-45.2708 105.516,-35.5408"/>
</g>
<!-- ActiveRecord::Base&#45;&gt;Template -->
<g id="edge19" class="edge"><title>ActiveRecord::Base&#45;&gt;Template</title>
<path fill="none" stroke="black" d="M346.081,-314.143C369.587,-300.984 399.61,-279.918 415,-252 427.357,-229.583 427.109,-199.09 425.37,-180.245"/>
</g>
<!-- ActiveRecord::Base&#45;&gt;User -->
<g id="edge20" class="edge"><title>ActiveRecord::Base&#45;&gt;User</title>
<path fill="none" stroke="black" d="M351.908,-314.789C392.032,-299.093 456.409,-273.884 512,-252 518.125,-249.589 524.738,-246.978 530.898,-244.543"/>
</g>
<!-- ActiveRecord::Base&#45;&gt;Variant -->
<g id="edge21" class="edge"><title>ActiveRecord::Base&#45;&gt;Variant</title>
<path fill="none" stroke="black" d="M365.697,-316.477C422.217,-301.703 514.448,-276.819 593,-252 599.069,-250.082 605.522,-247.899 611.661,-245.75"/>
</g>
</g>
</svg>
