<?xml version="1.0" encoding="UTF-8" standalone="no"?>
<!DOCTYPE svg PUBLIC "-//W3C//DTD SVG 1.1//EN"
 "http://www.w3.org/Graphics/SVG/1.1/DTD/svg11.dtd">
<!-- Generated by graphviz version 2.30.1 (20130221.2233)
 -->
<!-- Title: models_diagram Pages: 1 -->
<svg width="1017pt" height="1098pt"
 viewBox="0.00 0.00 1016.61 1098.00" xmlns="http://www.w3.org/2000/svg" xmlns:xlink="http://www.w3.org/1999/xlink">
<g id="graph0" class="graph" transform="scale(1 1) rotate(0) translate(4 1094)">
<title>models_diagram</title>
<polygon fill="white" stroke="white" points="-4,5 -4,-1094 1013.61,-1094 1013.61,5 -4,5"/>
<!-- _diagram_info -->
<g id="node1" class="node"><title>_diagram_info</title>
<text text-anchor="start" x="78.1586" y="-1073" font-family="Times,serif" font-size="13.00">Models diagram</text>
<text text-anchor="start" x="78.1586" y="-1057.4" font-family="Times,serif" font-size="13.00">Date: Nov 07 2013 &#45; 09:51</text>
<text text-anchor="start" x="78.1586" y="-1041.8" font-family="Times,serif" font-size="13.00">Migration version: 20131031154644</text>
<text text-anchor="start" x="78.1586" y="-1026.2" font-family="Times,serif" font-size="13.00">Generated by RailRoady 1.1.1</text>
<text text-anchor="start" x="78.1586" y="-1010.6" font-family="Times,serif" font-size="13.00">http://railroady.prestonlee.com</text>
</g>
<!-- Agent -->
<g id="node2" class="node"><title>Agent</title>
<path fill="none" stroke="black" d="M153.72,-376.4C153.72,-376.4 277.497,-376.4 277.497,-376.4 283.497,-376.4 289.497,-382.4 289.497,-388.4 289.497,-388.4 289.497,-615.6 289.497,-615.6 289.497,-621.6 283.497,-627.6 277.497,-627.6 277.497,-627.6 153.72,-627.6 153.72,-627.6 147.72,-627.6 141.72,-621.6 141.72,-615.6 141.72,-615.6 141.72,-388.4 141.72,-388.4 141.72,-382.4 147.72,-376.4 153.72,-376.4"/>
<text text-anchor="middle" x="215.608" y="-609.6" font-family="Times,serif" font-size="14.00">Agent</text>
<polyline fill="none" stroke="black" points="141.72,-602.8 289.497,-602.8 "/>
<text text-anchor="start" x="149.72" y="-584.8" font-family="Times,serif" font-size="14.00">id :integer</text>
<text text-anchor="start" x="149.72" y="-568" font-family="Times,serif" font-size="14.00">publisher :string</text>
<text text-anchor="start" x="149.72" y="-551.2" font-family="Times,serif" font-size="14.00">payload :text</text>
<text text-anchor="start" x="149.72" y="-534.4" font-family="Times,serif" font-size="14.00">memory :text</text>
<text text-anchor="start" x="149.72" y="-517.6" font-family="Times,serif" font-size="14.00">identifier :string</text>
<text text-anchor="start" x="149.72" y="-500.8" font-family="Times,serif" font-size="14.00">title :string</text>
<text text-anchor="start" x="149.72" y="-484" font-family="Times,serif" font-size="14.00">help :text</text>
<text text-anchor="start" x="149.72" y="-467.2" font-family="Times,serif" font-size="14.00">schedule :string</text>
<text text-anchor="start" x="149.72" y="-450.4" font-family="Times,serif" font-size="14.00">events_count :integer</text>
<text text-anchor="start" x="149.72" y="-433.6" font-family="Times,serif" font-size="14.00">last_check_at :datetime</text>
<text text-anchor="start" x="149.72" y="-416.8" font-family="Times,serif" font-size="14.00">last_event :datetime</text>
<text text-anchor="start" x="149.72" y="-400" font-family="Times,serif" font-size="14.00">created_at :datetime</text>
<text text-anchor="start" x="149.72" y="-383.2" font-family="Times,serif" font-size="14.00">updated_at :datetime</text>
</g>
<!-- SeedMapping -->
<g id="node8" class="node"><title>SeedMapping</title>
<path fill="none" stroke="black" d="M77.103,-0.6C77.103,-0.6 186.114,-0.6 186.114,-0.6 192.114,-0.6 198.114,-6.6 198.114,-12.6 198.114,-12.6 198.114,-105.4 198.114,-105.4 198.114,-111.4 192.114,-117.4 186.114,-117.4 186.114,-117.4 77.103,-117.4 77.103,-117.4 71.103,-117.4 65.103,-111.4 65.103,-105.4 65.103,-105.4 65.103,-12.6 65.103,-12.6 65.103,-6.6 71.103,-0.6 77.103,-0.6"/>
<text text-anchor="middle" x="131.608" y="-99.4" font-family="Times,serif" font-size="14.00">SeedMapping</text>
<polyline fill="none" stroke="black" points="65.103,-92.6 198.114,-92.6 "/>
<text text-anchor="start" x="73.103" y="-74.6" font-family="Times,serif" font-size="14.00">id :integer</text>
<text text-anchor="start" x="73.103" y="-57.8" font-family="Times,serif" font-size="14.00">agent_id :integer</text>
<text text-anchor="start" x="73.103" y="-41" font-family="Times,serif" font-size="14.00">seed_id :integer</text>
<text text-anchor="start" x="73.103" y="-24.2" font-family="Times,serif" font-size="14.00">created_at :datetime</text>
<text text-anchor="start" x="73.103" y="-7.4" font-family="Times,serif" font-size="14.00">updated_at :datetime</text>
</g>
<!-- Agent&#45;&gt;SeedMapping -->
<g id="edge1" class="edge"><title>Agent&#45;&gt;SeedMapping</title>
<path fill="none" stroke="#0fac96" d="M231.693,-368.176C234.889,-301.944 231.309,-221.734 206.608,-154 203.085,-144.339 198.141,-134.915 192.453,-125.995"/>
<ellipse fill="none" stroke="#0fac96" cx="231.482" cy="-372.187" rx="4" ry="4"/>
<polygon fill="#0fac96" stroke="#0fac96" points="192.387,-125.897 190.525,-115.09 189.59,-121.752 186.794,-117.607 186.794,-117.607 186.794,-117.607 189.59,-121.752 183.064,-120.123 192.387,-125.897 192.387,-125.897"/>
</g>
<!-- Seed -->
<g id="node7" class="node"><title>Seed</title>
<path fill="none" stroke="black" d="M77.103,-155C77.103,-155 186.114,-155 186.114,-155 192.114,-155 198.114,-161 198.114,-167 198.114,-167 198.114,-327 198.114,-327 198.114,-333 192.114,-339 186.114,-339 186.114,-339 77.103,-339 77.103,-339 71.103,-339 65.103,-333 65.103,-327 65.103,-327 65.103,-167 65.103,-167 65.103,-161 71.103,-155 77.103,-155"/>
<text text-anchor="middle" x="131.608" y="-321" font-family="Times,serif" font-size="14.00">Seed</text>
<polyline fill="none" stroke="black" points="65.103,-314.2 198.114,-314.2 "/>
<text text-anchor="start" x="73.103" y="-296.2" font-family="Times,serif" font-size="14.00">id :integer</text>
<text text-anchor="start" x="73.103" y="-279.4" font-family="Times,serif" font-size="14.00">identifier :string</text>
<text text-anchor="start" x="73.103" y="-262.6" font-family="Times,serif" font-size="14.00">title :string</text>
<text text-anchor="start" x="73.103" y="-245.8" font-family="Times,serif" font-size="14.00">publisher :string</text>
<text text-anchor="start" x="73.103" y="-229" font-family="Times,serif" font-size="14.00">help :text</text>
<text text-anchor="start" x="73.103" y="-212.2" font-family="Times,serif" font-size="14.00">payload :text</text>
<text text-anchor="start" x="73.103" y="-195.4" font-family="Times,serif" font-size="14.00">memory :text</text>
<text text-anchor="start" x="73.103" y="-178.6" font-family="Times,serif" font-size="14.00">created_at :datetime</text>
<text text-anchor="start" x="73.103" y="-161.8" font-family="Times,serif" font-size="14.00">updated_at :datetime</text>
</g>
<!-- Agent&#45;&gt;Seed -->
<g id="edge2" class="edge"><title>Agent&#45;&gt;Seed</title>
<path fill="none" stroke="#471b1c" d="M171.022,-366.709C169.056,-360.788 167.098,-354.89 165.164,-349.067"/>
<polygon fill="#471b1c" stroke="#471b1c" points="171.072,-366.862 169.953,-377.771 172.648,-371.608 174.224,-376.353 174.224,-376.353 174.224,-376.353 172.648,-371.608 178.494,-374.935 171.072,-366.862 171.072,-366.862"/>
<polygon fill="#471b1c" stroke="#471b1c" points="165.088,-348.838 166.208,-337.929 163.513,-344.092 161.937,-339.347 161.937,-339.347 161.937,-339.347 163.513,-344.092 157.666,-340.765 165.088,-348.838 165.088,-348.838"/>
</g>
<!-- AgentMapping -->
<g id="node3" class="node"><title>AgentMapping</title>
<path fill="none" stroke="black" d="M277.21,-188.6C277.21,-188.6 394.007,-188.6 394.007,-188.6 400.007,-188.6 406.007,-194.6 406.007,-200.6 406.007,-200.6 406.007,-293.4 406.007,-293.4 406.007,-299.4 400.007,-305.4 394.007,-305.4 394.007,-305.4 277.21,-305.4 277.21,-305.4 271.21,-305.4 265.21,-299.4 265.21,-293.4 265.21,-293.4 265.21,-200.6 265.21,-200.6 265.21,-194.6 271.21,-188.6 277.21,-188.6"/>
<text text-anchor="middle" x="335.608" y="-287.4" font-family="Times,serif" font-size="14.00">AgentMapping</text>
<polyline fill="none" stroke="black" points="265.21,-280.6 406.007,-280.6 "/>
<text text-anchor="start" x="273.21" y="-262.6" font-family="Times,serif" font-size="14.00">id :integer</text>
<text text-anchor="start" x="273.21" y="-245.8" font-family="Times,serif" font-size="14.00">integration_id :integer</text>
<text text-anchor="start" x="273.21" y="-229" font-family="Times,serif" font-size="14.00">agent_id :integer</text>
<text text-anchor="start" x="273.21" y="-212.2" font-family="Times,serif" font-size="14.00">created_at :datetime</text>
<text text-anchor="start" x="273.21" y="-195.4" font-family="Times,serif" font-size="14.00">updated_at :datetime</text>
</g>
<!-- Agent&#45;&gt;AgentMapping -->
<g id="edge3" class="edge"><title>Agent&#45;&gt;AgentMapping</title>
<path fill="none" stroke="#019d11" d="M278.178,-369.082C287.135,-350.198 296.015,-331.475 304.019,-314.601"/>
<ellipse fill="none" stroke="#019d11" cx="276.444" cy="-372.739" rx="4.00002" ry="4.00002"/>
<polygon fill="#019d11" stroke="#019d11" points="304.084,-314.463 312.436,-307.356 306.227,-309.945 308.37,-305.428 308.37,-305.428 308.37,-305.428 306.227,-309.945 304.304,-303.499 304.084,-314.463 304.084,-314.463"/>
</g>
<!-- Agent&#45;&gt;Agent -->
<g id="edge4" class="edge"><title>Agent&#45;&gt;Agent</title>
<path fill="none" stroke="#25bd37" d="M296.898,-537.403C302.916,-529.467 306.608,-517.666 306.608,-502 306.608,-486.334 302.916,-474.533 296.898,-466.597"/>
<polygon fill="#25bd37" stroke="#25bd37" points="296.727,-537.566 286.4,-541.254 293.123,-541.032 289.519,-544.497 289.519,-544.497 289.519,-544.497 293.123,-541.032 292.638,-547.741 296.727,-537.566 296.727,-537.566"/>
<polygon fill="#25bd37" stroke="#25bd37" points="296.727,-466.434 292.638,-456.259 293.123,-462.968 289.519,-459.503 289.519,-459.503 289.519,-459.503 293.123,-462.968 286.4,-462.746 296.727,-466.434 296.727,-466.434"/>
</g>
<!-- Cache -->
<g id="node4" class="node"><title>Cache</title>
<path fill="none" stroke="black" d="M148.103,-740.8C148.103,-740.8 257.114,-740.8 257.114,-740.8 263.114,-740.8 269.114,-746.8 269.114,-752.8 269.114,-752.8 269.114,-879.2 269.114,-879.2 269.114,-885.2 263.114,-891.2 257.114,-891.2 257.114,-891.2 148.103,-891.2 148.103,-891.2 142.103,-891.2 136.103,-885.2 136.103,-879.2 136.103,-879.2 136.103,-752.8 136.103,-752.8 136.103,-746.8 142.103,-740.8 148.103,-740.8"/>
<text text-anchor="middle" x="202.608" y="-873.2" font-family="Times,serif" font-size="14.00">Cache</text>
<polyline fill="none" stroke="black" points="136.103,-866.4 269.114,-866.4 "/>
<text text-anchor="start" x="144.103" y="-848.4" font-family="Times,serif" font-size="14.00">id :integer</text>
<text text-anchor="start" x="144.103" y="-831.6" font-family="Times,serif" font-size="14.00">publisher :string</text>
<text text-anchor="start" x="144.103" y="-814.8" font-family="Times,serif" font-size="14.00">agent_id :integer</text>
<text text-anchor="start" x="144.103" y="-798" font-family="Times,serif" font-size="14.00">payload :text</text>
<text text-anchor="start" x="144.103" y="-781.2" font-family="Times,serif" font-size="14.00">memory :text</text>
<text text-anchor="start" x="144.103" y="-764.4" font-family="Times,serif" font-size="14.00">created_at :datetime</text>
<text text-anchor="start" x="144.103" y="-747.6" font-family="Times,serif" font-size="14.00">updated_at :datetime</text>
</g>
<!-- Cache&#45;&gt;Agent -->
<g id="edge7" class="edge"><title>Cache&#45;&gt;Agent</title>
<path fill="none" stroke="#19a76d" d="M206.041,-732.618C207.275,-703.002 208.7,-668.793 210.068,-635.974"/>
<ellipse fill="none" stroke="#19a76d" cx="205.872" cy="-736.668" rx="4" ry="4"/>
<ellipse fill="#19a76d" stroke="#19a76d" cx="210.247" cy="-631.661" rx="4" ry="4"/>
</g>
<!-- Integration -->
<g id="node5" class="node"><title>Integration</title>
<path fill="none" stroke="black" d="M376.103,-732.4C376.103,-732.4 485.114,-732.4 485.114,-732.4 491.114,-732.4 497.114,-738.4 497.114,-744.4 497.114,-744.4 497.114,-887.6 497.114,-887.6 497.114,-893.6 491.114,-899.6 485.114,-899.6 485.114,-899.6 376.103,-899.6 376.103,-899.6 370.103,-899.6 364.103,-893.6 364.103,-887.6 364.103,-887.6 364.103,-744.4 364.103,-744.4 364.103,-738.4 370.103,-732.4 376.103,-732.4"/>
<text text-anchor="middle" x="430.608" y="-881.6" font-family="Times,serif" font-size="14.00">Integration</text>
<polyline fill="none" stroke="black" points="364.103,-874.8 497.114,-874.8 "/>
<text text-anchor="start" x="372.103" y="-856.8" font-family="Times,serif" font-size="14.00">id :integer</text>
<text text-anchor="start" x="372.103" y="-840" font-family="Times,serif" font-size="14.00">identifier :string</text>
<text text-anchor="start" x="372.103" y="-823.2" font-family="Times,serif" font-size="14.00">title :string</text>
<text text-anchor="start" x="372.103" y="-806.4" font-family="Times,serif" font-size="14.00">help :text</text>
<text text-anchor="start" x="372.103" y="-789.6" font-family="Times,serif" font-size="14.00">payload :text</text>
<text text-anchor="start" x="372.103" y="-772.8" font-family="Times,serif" font-size="14.00">memory :text</text>
<text text-anchor="start" x="372.103" y="-756" font-family="Times,serif" font-size="14.00">created_at :datetime</text>
<text text-anchor="start" x="372.103" y="-739.2" font-family="Times,serif" font-size="14.00">updated_at :datetime</text>
</g>
<!-- IntegrationMapping -->
<g id="node6" class="node"><title>IntegrationMapping</title>
<path fill="none" stroke="black" d="M460.21,-188.6C460.21,-188.6 577.007,-188.6 577.007,-188.6 583.007,-188.6 589.007,-194.6 589.007,-200.6 589.007,-200.6 589.007,-293.4 589.007,-293.4 589.007,-299.4 583.007,-305.4 577.007,-305.4 577.007,-305.4 460.21,-305.4 460.21,-305.4 454.21,-305.4 448.21,-299.4 448.21,-293.4 448.21,-293.4 448.21,-200.6 448.21,-200.6 448.21,-194.6 454.21,-188.6 460.21,-188.6"/>
<text text-anchor="middle" x="518.608" y="-287.4" font-family="Times,serif" font-size="14.00">IntegrationMapping</text>
<polyline fill="none" stroke="black" points="448.21,-280.6 589.007,-280.6 "/>
<text text-anchor="start" x="456.21" y="-262.6" font-family="Times,serif" font-size="14.00">id :integer</text>
<text text-anchor="start" x="456.21" y="-245.8" font-family="Times,serif" font-size="14.00">integration_id :integer</text>
<text text-anchor="start" x="456.21" y="-229" font-family="Times,serif" font-size="14.00">template_id :integer</text>
<text text-anchor="start" x="456.21" y="-212.2" font-family="Times,serif" font-size="14.00">created_at :datetime</text>
<text text-anchor="start" x="456.21" y="-195.4" font-family="Times,serif" font-size="14.00">updated_at :datetime</text>
</g>
<!-- Integration&#45;&gt;IntegrationMapping -->
<g id="edge9" class="edge"><title>Integration&#45;&gt;IntegrationMapping</title>
<path fill="none" stroke="#5ded9a" d="M415.224,-724.273C403.418,-633.827 394.565,-492.048 430.608,-376 437.402,-354.127 449.374,-332.679 462.34,-313.781"/>
<ellipse fill="none" stroke="#5ded9a" cx="415.77" cy="-728.355" rx="4.00001" ry="4.00001"/>
<polygon fill="#5ded9a" stroke="#5ded9a" points="462.375,-313.731 471.823,-308.163 465.262,-309.648 468.148,-305.566 468.148,-305.566 468.148,-305.566 465.262,-309.648 464.474,-302.968 462.375,-313.731 462.375,-313.731"/>
</g>
<!-- Template -->
<g id="node9" class="node"><title>Template</title>
<path fill="none" stroke="black" d="M451.668,-384.8C451.668,-384.8 585.548,-384.8 585.548,-384.8 591.548,-384.8 597.548,-390.8 597.548,-396.8 597.548,-396.8 597.548,-607.2 597.548,-607.2 597.548,-613.2 591.548,-619.2 585.548,-619.2 585.548,-619.2 451.668,-619.2 451.668,-619.2 445.668,-619.2 439.668,-613.2 439.668,-607.2 439.668,-607.2 439.668,-396.8 439.668,-396.8 439.668,-390.8 445.668,-384.8 451.668,-384.8"/>
<text text-anchor="middle" x="518.608" y="-601.2" font-family="Times,serif" font-size="14.00">Template</text>
<polyline fill="none" stroke="black" points="439.668,-594.4 597.548,-594.4 "/>
<text text-anchor="start" x="447.668" y="-576.4" font-family="Times,serif" font-size="14.00">id :integer</text>
<text text-anchor="start" x="447.668" y="-559.6" font-family="Times,serif" font-size="14.00">identifier :string</text>
<text text-anchor="start" x="447.668" y="-542.8" font-family="Times,serif" font-size="14.00">title :text</text>
<text text-anchor="start" x="447.668" y="-526" font-family="Times,serif" font-size="14.00">help :text</text>
<text text-anchor="start" x="447.668" y="-509.2" font-family="Times,serif" font-size="14.00">publisher :string</text>
<text text-anchor="start" x="447.668" y="-492.4" font-family="Times,serif" font-size="14.00">variables :text</text>
<text text-anchor="start" x="447.668" y="-475.6" font-family="Times,serif" font-size="14.00">payload :text</text>
<text text-anchor="start" x="447.668" y="-458.8" font-family="Times,serif" font-size="14.00">memory :text</text>
<text text-anchor="start" x="447.668" y="-442" font-family="Times,serif" font-size="14.00">count :integer</text>
<text text-anchor="start" x="447.668" y="-425.2" font-family="Times,serif" font-size="14.00">last_execute_at :datetime</text>
<text text-anchor="start" x="447.668" y="-408.4" font-family="Times,serif" font-size="14.00">created_at :datetime</text>
<text text-anchor="start" x="447.668" y="-391.6" font-family="Times,serif" font-size="14.00">updated_at :datetime</text>
</g>
<!-- Integration&#45;&gt;Template -->
<g id="edge10" class="edge"><title>Integration&#45;&gt;Template</title>
<path fill="none" stroke="#a8e4d4" d="M456.746,-722.33C464.969,-693.176 474.194,-660.468 482.961,-629.387"/>
<polygon fill="#a8e4d4" stroke="#a8e4d4" points="456.674,-722.584 449.629,-730.987 455.317,-727.397 453.96,-732.209 453.96,-732.209 453.96,-732.209 455.317,-727.397 458.291,-733.43 456.674,-722.584 456.674,-722.584"/>
<polygon fill="#a8e4d4" stroke="#a8e4d4" points="483.074,-628.985 490.12,-620.582 484.431,-624.172 485.789,-619.36 485.789,-619.36 485.789,-619.36 484.431,-624.172 481.458,-618.138 483.074,-628.985 483.074,-628.985"/>
</g>
<!-- Integration&#45;&gt;AgentMapping -->
<g id="edge11" class="edge"><title>Integration&#45;&gt;AgentMapping</title>
<path fill="none" stroke="#6f25d6" d="M415.405,-724.262C396.314,-610.319 364.001,-417.458 346.94,-315.632"/>
<ellipse fill="none" stroke="#6f25d6" cx="416.083" cy="-728.305" rx="4.00001" ry="4.00001"/>
<polygon fill="#6f25d6" stroke="#6f25d6" points="346.89,-315.333 349.676,-304.727 346.064,-310.402 345.237,-305.47 345.237,-305.47 345.237,-305.47 346.064,-310.402 340.799,-306.214 346.89,-315.333 346.89,-315.333"/>
</g>
<!-- Integration&#45;&gt;Agent -->
<g id="edge12" class="edge"><title>Integration&#45;&gt;Agent</title>
<path fill="none" stroke="#b34509" d="M367.744,-723.773C345.076,-690.879 319.189,-653.313 295.276,-618.61"/>
<polygon fill="#b34509" stroke="#b34509" points="367.882,-723.975 369.851,-734.762 370.72,-728.092 373.557,-732.209 373.557,-732.209 373.557,-732.209 370.72,-728.092 377.262,-729.655 367.882,-723.975 367.882,-723.975"/>
<polygon fill="#b34509" stroke="#b34509" points="295.239,-618.558 293.27,-607.77 292.402,-614.44 289.565,-610.323 289.565,-610.323 289.565,-610.323 292.402,-614.44 285.86,-612.877 295.239,-618.558 295.239,-618.558"/>
</g>
<!-- Seed&#45;&gt;SeedMapping -->
<g id="edge15" class="edge"><title>Seed&#45;&gt;SeedMapping</title>
<path fill="none" stroke="#40e4d9" d="M131.608,-146.872C131.608,-140.462 131.608,-134.091 131.608,-127.882"/>
<ellipse fill="none" stroke="#40e4d9" cx="131.608" cy="-150.907" rx="4" ry="4"/>
<polygon fill="#40e4d9" stroke="#40e4d9" points="131.608,-127.607 136.108,-117.607 131.608,-122.607 131.608,-117.607 131.608,-117.607 131.608,-117.607 131.608,-122.607 127.108,-117.607 131.608,-127.607 131.608,-127.607"/>
</g>
<!-- Template&#45;&gt;IntegrationMapping -->
<g id="edge18" class="edge"><title>Template&#45;&gt;IntegrationMapping</title>
<path fill="none" stroke="#54b623" d="M518.608,-376.467C518.608,-355.577 518.608,-334.616 518.608,-315.863"/>
<ellipse fill="none" stroke="#54b623" cx="518.608" cy="-380.497" rx="4" ry="4"/>
<polygon fill="#54b623" stroke="#54b623" points="518.608,-315.686 523.108,-305.686 518.608,-310.686 518.608,-305.686 518.608,-305.686 518.608,-305.686 518.608,-310.686 514.108,-305.686 518.608,-315.686 518.608,-315.686"/>
</g>
<!-- User -->
<g id="node10" class="node"><title>User</title>
<path fill="none" stroke="black" d="M665.331,-665.2C665.331,-665.2 845.886,-665.2 845.886,-665.2 851.886,-665.2 857.886,-671.2 857.886,-677.2 857.886,-677.2 857.886,-954.8 857.886,-954.8 857.886,-960.8 851.886,-966.8 845.886,-966.8 845.886,-966.8 665.331,-966.8 665.331,-966.8 659.331,-966.8 653.331,-960.8 653.331,-954.8 653.331,-954.8 653.331,-677.2 653.331,-677.2 653.331,-671.2 659.331,-665.2 665.331,-665.2"/>
<text text-anchor="middle" x="755.608" y="-948.8" font-family="Times,serif" font-size="14.00">User</text>
<polyline fill="none" stroke="black" points="653.331,-942 857.886,-942 "/>
<text text-anchor="start" x="661.331" y="-924" font-family="Times,serif" font-size="14.00">id :integer</text>
<text text-anchor="start" x="661.331" y="-907.2" font-family="Times,serif" font-size="14.00">email :string</text>
<text text-anchor="start" x="661.331" y="-890.4" font-family="Times,serif" font-size="14.00">encrypted_password :string</text>
<text text-anchor="start" x="661.331" y="-873.6" font-family="Times,serif" font-size="14.00">reset_password_token :string</text>
<text text-anchor="start" x="661.331" y="-856.8" font-family="Times,serif" font-size="14.00">reset_password_sent_at :datetime</text>
<text text-anchor="start" x="661.331" y="-840" font-family="Times,serif" font-size="14.00">remember_created_at :datetime</text>
<text text-anchor="start" x="661.331" y="-823.2" font-family="Times,serif" font-size="14.00">sign_in_count :integer</text>
<text text-anchor="start" x="661.331" y="-806.4" font-family="Times,serif" font-size="14.00">current_sign_in_at :datetime</text>
<text text-anchor="start" x="661.331" y="-789.6" font-family="Times,serif" font-size="14.00">last_sign_in_at :datetime</text>
<text text-anchor="start" x="661.331" y="-772.8" font-family="Times,serif" font-size="14.00">current_sign_in_ip :string</text>
<text text-anchor="start" x="661.331" y="-756" font-family="Times,serif" font-size="14.00">last_sign_in_ip :string</text>
<text text-anchor="start" x="661.331" y="-739.2" font-family="Times,serif" font-size="14.00">created_at :datetime</text>
<text text-anchor="start" x="661.331" y="-722.4" font-family="Times,serif" font-size="14.00">updated_at :datetime</text>
<text text-anchor="start" x="661.331" y="-705.6" font-family="Times,serif" font-size="14.00">name :string</text>
<text text-anchor="start" x="661.331" y="-688.8" font-family="Times,serif" font-size="14.00">username :string</text>
<text text-anchor="start" x="661.331" y="-672" font-family="Times,serif" font-size="14.00">apikey :string</text>
</g>
<!-- Variant -->
<g id="node11" class="node"><title>Variant</title>
<path fill="none" stroke="black" d="M888.103,-740.8C888.103,-740.8 997.114,-740.8 997.114,-740.8 1003.11,-740.8 1009.11,-746.8 1009.11,-752.8 1009.11,-752.8 1009.11,-879.2 1009.11,-879.2 1009.11,-885.2 1003.11,-891.2 997.114,-891.2 997.114,-891.2 888.103,-891.2 888.103,-891.2 882.103,-891.2 876.103,-885.2 876.103,-879.2 876.103,-879.2 876.103,-752.8 876.103,-752.8 876.103,-746.8 882.103,-740.8 888.103,-740.8"/>
<text text-anchor="middle" x="942.608" y="-873.2" font-family="Times,serif" font-size="14.00">Variant</text>
<polyline fill="none" stroke="black" points="876.103,-866.4 1009.11,-866.4 "/>
<text text-anchor="start" x="884.103" y="-848.4" font-family="Times,serif" font-size="14.00">id :integer</text>
<text text-anchor="start" x="884.103" y="-831.6" font-family="Times,serif" font-size="14.00">refseq :string</text>
<text text-anchor="start" x="884.103" y="-814.8" font-family="Times,serif" font-size="14.00">gene :string</text>
<text text-anchor="start" x="884.103" y="-798" font-family="Times,serif" font-size="14.00">variant :string</text>
<text text-anchor="start" x="884.103" y="-781.2" font-family="Times,serif" font-size="14.00">url :string</text>
<text text-anchor="start" x="884.103" y="-764.4" font-family="Times,serif" font-size="14.00">created_at :datetime</text>
<text text-anchor="start" x="884.103" y="-747.6" font-family="Times,serif" font-size="14.00">updated_at :datetime</text>
</g>
<!-- ActiveRecord::Base -->
<g id="node12" class="node"><title>ActiveRecord::Base</title>
<ellipse fill="none" stroke="black" cx="383.608" cy="-1047" rx="88.2033" ry="18"/>
<text text-anchor="middle" x="383.608" y="-1041.4" font-family="Times,serif" font-size="14.00">ActiveRecord::Base</text>
</g>
<!-- ActiveRecord::Base&#45;&gt;Agent -->
<g id="edge5" class="edge"><title>ActiveRecord::Base&#45;&gt;Agent</title>
<path fill="none" stroke="black" d="M365.813,-1029.21C351.414,-1014.51 331.896,-991.821 321.608,-968 267.482,-842.669 312.132,-796.082 277.608,-664 274.503,-652.119 270.802,-639.914 266.775,-627.793"/>
</g>
<!-- ActiveRecord::Base&#45;&gt;AgentMapping -->
<g id="edge6" class="edge"><title>ActiveRecord::Base&#45;&gt;AgentMapping</title>
<path fill="none" stroke="black" d="M375.342,-1028.82C368.347,-1013.32 358.808,-989.702 354.608,-968 307.684,-725.538 321.854,-428.652 330.78,-305.627"/>
</g>
<!-- ActiveRecord::Base&#45;&gt;Cache -->
<g id="edge8" class="edge"><title>ActiveRecord::Base&#45;&gt;Cache</title>
<path fill="none" stroke="black" d="M356.884,-1029.66C335.159,-1015.39 304.752,-993.084 283.608,-968 264.435,-945.254 247.882,-917.237 234.826,-891.539"/>
</g>
<!-- ActiveRecord::Base&#45;&gt;Integration -->
<g id="edge13" class="edge"><title>ActiveRecord::Base&#45;&gt;Integration</title>
<path fill="none" stroke="black" d="M387.141,-1028.79C392.734,-1001.54 403.985,-946.716 413.639,-899.679"/>
</g>
<!-- ActiveRecord::Base&#45;&gt;IntegrationMapping -->
<g id="edge14" class="edge"><title>ActiveRecord::Base&#45;&gt;IntegrationMapping</title>
<path fill="none" stroke="black" d="M439.361,-1032.97C474.926,-1021.72 518.999,-1001.79 544.608,-968 637.346,-845.651 591.999,-780.919 605.608,-628 615.537,-516.441 638.544,-483.048 605.608,-376 597.904,-350.961 583.449,-326.427 568.502,-305.647"/>
</g>
<!-- ActiveRecord::Base&#45;&gt;Seed -->
<g id="edge16" class="edge"><title>ActiveRecord::Base&#45;&gt;Seed</title>
<path fill="none" stroke="black" d="M350.622,-1030.08C331.88,-1021.49 307.793,-1011.2 285.608,-1004 216.691,-981.636 171.833,-1024.61 126.608,-968 51.1698,-873.572 92.5524,-510.979 117.314,-339.228"/>
</g>
<!-- ActiveRecord::Base&#45;&gt;SeedMapping -->
<g id="edge17" class="edge"><title>ActiveRecord::Base&#45;&gt;SeedMapping</title>
<path fill="none" stroke="black" d="M351.642,-1030.06C332.82,-1021.25 308.32,-1010.75 285.608,-1004 196.518,-977.516 140.753,-1038 79.6083,-968 -39.4454,-831.708 -4.7342,-324.611 55.6083,-154 60.1569,-141.14 67.2952,-128.75 75.4149,-117.421"/>
</g>
<!-- ActiveRecord::Base&#45;&gt;Template -->
<g id="edge19" class="edge"><title>ActiveRecord::Base&#45;&gt;Template</title>
<path fill="none" stroke="black" d="M425.98,-1031.07C453.91,-1018.79 488.399,-998.412 505.608,-968 565.766,-861.69 559.377,-718.683 544.076,-619.452"/>
</g>
<!-- ActiveRecord::Base&#45;&gt;User -->
<g id="edge20" class="edge"><title>ActiveRecord::Base&#45;&gt;User</title>
<path fill="none" stroke="black" d="M455.022,-1036.36C509.452,-1026.29 584.225,-1006.36 639.608,-968 644.228,-964.8 648.746,-961.36 653.155,-957.724"/>
</g>
<!-- ActiveRecord::Base&#45;&gt;Variant -->
<g id="edge21" class="edge"><title>ActiveRecord::Base&#45;&gt;Variant</title>
<path fill="none" stroke="black" d="M467.97,-1041.52C589.124,-1033.58 804.642,-1013.4 866.608,-968 892.177,-949.267 909.698,-919.465 921.412,-891.268"/>
</g>
</g>
</svg>
